<svg width="13" height="14" viewBox="0 0 13 14" fill="none" xmlns="http://www.w3.org/2000/svg">
<path d="M7.71889 6.7957L8.67594 5.1717L11.2556 9.18966L11.2569 9.96078L11.2485 4.65468C11.2423 4.52498 11.1735 4.40633 11.0636 4.33635L6.41918 1.66481C6.3106 1.61139 6.17276 1.61201 6.06431 1.6665C6.04966 1.6738 6.03586 1.6818 6.02276 1.69052L6.00655 1.7007L1.49844 4.31311L1.48096 4.32105C1.45847 4.33139 1.43571 4.34454 1.41439 4.35981C1.3289 4.4211 1.27215 4.51174 1.25379 4.61342C1.25103 4.62883 1.24899 4.64451 1.24805 4.66037L1.25513 8.98431L3.65798 5.25999C3.96053 4.76616 4.61963 4.60709 5.23151 4.61573L5.94964 4.63468L1.71825 11.4206L2.21705 11.7078L6.49909 4.64158L8.39179 4.63471L4.12078 11.8792L5.90063 12.903L6.11328 13.0253C6.20323 13.0618 6.30928 13.0637 6.39999 13.0309L11.1097 10.3016L10.2092 10.8233L7.71889 6.7957ZM8.084 12.0549L6.28636 9.23352L7.38373 7.3714L9.74462 11.0926L8.084 12.0549Z" fill="#2D374B"/>
<path d="M6.28613 9.23351L8.08375 12.0549L9.74439 11.0926L7.38347 7.37138L6.28613 9.23351Z" fill="#28A0F0"/>
<path d="M11.2567 9.96075L11.2555 9.18964L8.67581 5.17168L7.71875 6.79567L10.2091 10.8233L11.1095 10.3015C11.1978 10.2297 11.2513 10.1245 11.2569 10.0109L11.2567 9.96075Z" fill="#28A0F0"/>
<path d="M0.446289 10.6879L1.71781 11.4206L5.94917 4.63472L5.23104 4.61576C4.61916 4.60712 3.96003 4.76619 3.65751 5.26002L1.25466 8.98435L0.446289 10.2264V10.6879Z" fill="white"/>
<path d="M8.39153 4.6347L6.49884 4.64158L2.2168 11.7078L3.71351 12.5695L4.12053 11.8792L8.39153 4.6347Z" fill="white"/>
<path d="M12.054 4.62497C12.0382 4.22914 11.8239 3.86679 11.4882 3.65583L6.78289 0.94993C6.45081 0.782725 6.03598 0.78251 5.70332 0.949823C5.66399 0.969659 1.12754 3.60062 1.12754 3.60062C1.06475 3.63073 1.00427 3.6666 0.947393 3.70732C0.647719 3.92209 0.465052 4.25585 0.446289 4.62253V10.2264L1.25466 8.98434L1.2476 4.6604C1.24854 4.64459 1.25053 4.62902 1.25335 4.61367C1.27163 4.51193 1.32843 4.42118 1.41395 4.35984C1.43529 4.34457 6.04924 1.67383 6.0639 1.6665C6.17234 1.61204 6.31018 1.61139 6.41876 1.66481L11.0632 4.3363C11.1731 4.40628 11.2419 4.52493 11.2481 4.65463V10.0109C11.2424 10.1245 11.1975 10.2297 11.1092 10.3015L10.2088 10.8233L9.7442 11.0925L8.08359 12.0549L6.39954 13.0308C6.30884 13.0636 6.20278 13.0618 6.11283 13.0252L4.12034 11.8792L3.71332 12.5695L5.5039 13.6004C5.56312 13.6341 5.61586 13.664 5.65916 13.6883C5.72619 13.7259 5.77187 13.751 5.78801 13.7588C5.91527 13.8207 6.09839 13.8566 6.2634 13.8566C6.41468 13.8566 6.56221 13.8289 6.7018 13.7742L11.5933 10.9414C11.874 10.7239 12.0392 10.3958 12.054 10.0405V4.62497Z" fill="#96BEDC"/>
</svg>
