<svg width="10" height="7" viewBox="0 0 10 7" fill="none" xmlns="http://www.w3.org/2000/svg">
<path fill-rule="evenodd" clip-rule="evenodd" d="M0.03125 3.04367C0.03125 2.95542 0.0662601 2.87077 0.128578 2.80837C0.190897 2.74596 0.275419 2.7109 0.36355 2.7109L8.20118 2.7109L6.10968 0.617127C6.04728 0.554643 6.01223 0.469895 6.01223 0.381528C6.01223 0.293161 6.04728 0.208413 6.10968 0.145928C6.17208 0.0834432 6.25671 0.0483399 6.34495 0.0483399C6.43319 0.0483399 6.51782 0.0834432 6.58022 0.145928L9.23862 2.80807C9.26956 2.83898 9.29412 2.8757 9.31087 2.91613C9.32762 2.95656 9.33624 2.9999 9.33624 3.04367C9.33624 3.08744 9.32762 3.13078 9.31087 3.17121C9.29412 3.21164 9.26956 3.24836 9.23862 3.27927L6.58022 5.94141C6.51782 6.0039 6.43319 6.039 6.34495 6.039C6.25671 6.039 6.17208 6.0039 6.10968 5.94141C6.04728 5.87893 6.01223 5.79418 6.01223 5.70581C6.01223 5.61745 6.04728 5.5327 6.10968 5.47021L8.20118 3.37644L0.36355 3.37644C0.275419 3.37644 0.190897 3.34138 0.128578 3.27897C0.0662601 3.21657 0.03125 3.13193 0.03125 3.04367Z" fill="white"/>
</svg>
