<svg width="19" height="13" viewBox="0 0 19 13" fill="none" xmlns="http://www.w3.org/2000/svg">
<path fill-rule="evenodd" clip-rule="evenodd" d="M18.9316 6.42117C18.9316 6.60028 18.8605 6.77205 18.7338 6.8987C18.6072 7.02535 18.4354 7.0965 18.2563 7.0965L2.328 7.0965L6.57852 11.3457C6.70533 11.4725 6.77657 11.6445 6.77657 11.8238C6.77657 12.0031 6.70533 12.1751 6.57852 12.3019C6.45171 12.4287 6.27972 12.5 6.10039 12.5C5.92105 12.5 5.74906 12.4287 5.62225 12.3019L0.21962 6.8993C0.156729 6.83657 0.106833 6.76205 0.0727882 6.68C0.0387421 6.59795 0.0212173 6.51 0.0212173 6.42117C0.0212173 6.33234 0.0387421 6.24438 0.0727882 6.16234C0.106833 6.08029 0.156729 6.00577 0.21962 5.94304L5.62225 0.540402C5.74906 0.413593 5.92105 0.342354 6.10039 0.342354C6.27972 0.342354 6.45171 0.413593 6.57852 0.540402C6.70533 0.667212 6.77657 0.839201 6.77657 1.01854C6.77657 1.19787 6.70533 1.36986 6.57852 1.49667L2.328 5.74584L18.2563 5.74584C18.4354 5.74584 18.6072 5.81699 18.7338 5.94364C18.8605 6.07029 18.9316 6.24206 18.9316 6.42117Z" fill="#F8F8F8"/>
</svg>
