<svg width="11" height="11" viewBox="0 0 11 11" fill="none" xmlns="http://www.w3.org/2000/svg">
<g clip-path="url(#clip0)">
<path d="M2.85872 5.58264H1.19206C0.942057 5.58264 0.775391 5.74931 0.775391 5.99931V9.33264C0.775391 9.58264 0.942057 9.74931 1.19206 9.74931H2.85872C3.10872 9.74931 3.27539 9.58264 3.27539 9.33264V5.99931C3.27539 5.74931 3.10872 5.58264 2.85872 5.58264ZM9.52539 3.91597H7.85872C7.60872 3.91597 7.44206 4.08264 7.44206 4.33264V9.33264C7.44206 9.58264 7.60872 9.74931 7.85872 9.74931H9.52539C9.77539 9.74931 9.94206 9.58264 9.94206 9.33264V4.33264C9.94206 4.08264 9.77539 3.91597 9.52539 3.91597ZM6.19206 0.582642H4.52539C4.27539 0.582642 4.10872 0.749308 4.10872 0.999308V9.33264C4.10872 9.58264 4.27539 9.74931 4.52539 9.74931H6.19206C6.44206 9.74931 6.60872 9.58264 6.60872 9.33264V0.999308C6.60872 0.749308 6.44206 0.582642 6.19206 0.582642Z" fill="white"/>
</g>
<defs>
<clipPath id="clip0">
<rect width="10" height="10" fill="white" transform="translate(0.358398 0.165894)"/>
</clipPath>
</defs>
</svg>
