<svg width="13" height="13" viewBox="0 0 13 13" fill="none" xmlns="http://www.w3.org/2000/svg">
<path d="M10.5248 9.02082V9.52198C10.5248 10.0733 10.0737 10.5243 9.52247 10.5243H2.50623C2.24039 10.5243 1.98545 10.4187 1.79748 10.2307C1.60951 10.0428 1.50391 9.78781 1.50391 9.52198V2.50574C1.50391 2.23991 1.60951 1.98496 1.79748 1.79699C1.98545 1.60902 2.24039 1.50342 2.50623 1.50342H9.52247C10.0737 1.50342 10.5248 1.95446 10.5248 2.50574V3.0069H6.01435C5.74852 3.0069 5.49357 3.1125 5.3056 3.30047C5.11763 3.48844 5.01203 3.74339 5.01203 4.00922V8.0185C5.01203 8.28433 5.11763 8.53927 5.3056 8.72725C5.49357 8.91522 5.74852 9.02082 6.01435 9.02082H10.5248ZM6.01435 8.0185H11.0259V4.00922H6.01435V8.0185ZM8.01899 6.7656C7.60302 6.7656 7.26725 6.42982 7.26725 6.01386C7.26725 5.5979 7.60302 5.26212 8.01899 5.26212C8.43495 5.26212 8.77073 5.5979 8.77073 6.01386C8.77073 6.42982 8.43495 6.7656 8.01899 6.7656Z" fill="#CCE3FA"/>
</svg>
