<svg width="256" height="263" viewBox="0 0 256 263" fill="none" xmlns="http://www.w3.org/2000/svg">
<rect x="0.493164" y="0.329712" width="255" height="262.079" rx="7" fill="url(#paint0_linear)"/>
<mask id="mask0" style="mask-type:alpha" maskUnits="userSpaceOnUse" x="0" y="7" width="256" height="256">
<rect x="0.0693359" y="7.40854" width="255" height="255" rx="7" fill="#C4C4C4"/>
</mask>
<g mask="url(#mask0)">
<g clip-path="url(#clip0)">
<path d="M173.521 240.631L125.183 250.563L119.856 291.287L111.137 283.174L116.48 242.465L164.818 232.532L171.236 183.622L219.574 173.689L225.992 124.778L267.897 116.168L276.616 124.281L234.695 132.877L228.277 181.787L179.939 191.72L173.521 240.631Z" fill="#310349"/>
<path d="M191.153 257.038L142.815 266.971L137.472 307.68L128.769 299.581L134.096 258.857L182.433 248.924L188.852 200.014L237.189 190.081L243.608 141.171L285.529 132.575L294.232 140.674L252.327 149.285L245.909 198.195L197.571 208.128L191.153 257.038Z" fill="#310349"/>
<path d="M208.769 273.43L160.431 283.363L155.088 324.072L146.385 315.973L151.728 275.264L200.066 265.332L206.484 216.421L254.822 206.488L261.24 157.578L303.145 148.967L311.848 157.066L269.943 165.677L263.525 214.587L215.187 224.52L208.769 273.43Z" fill="#310349"/>
<path d="M226.385 289.823L178.047 299.755L172.72 340.479L164.001 332.366L169.344 291.657L217.681 281.724L224.1 232.814L272.438 222.881L278.856 173.971L320.761 165.36L329.48 173.473L287.559 182.069L281.141 230.98L232.803 240.912L226.385 289.823Z" fill="#310349"/>
<path d="M244.016 306.23L195.679 316.163L190.336 356.872L181.633 348.773L186.959 308.049L235.297 298.116L241.716 249.206L290.053 239.273L296.472 190.363L338.393 181.767L347.096 189.866L305.191 198.477L298.772 247.387L250.435 257.32L244.016 306.23Z" fill="#310349"/>
<path d="M261.632 322.622L213.294 332.555L207.952 373.264L199.248 365.165L204.591 324.456L252.929 314.524L259.347 265.613L307.685 255.681L314.104 206.77L356.009 198.159L364.712 206.258L322.807 214.869L316.388 263.779L268.051 273.712L261.632 322.622Z" fill="#310349"/>
<path d="M279.248 339.015L230.91 348.947L225.583 389.671L216.864 381.558L222.207 340.849L270.545 330.916L276.963 282.006L325.301 272.073L331.719 223.163L373.624 214.552L382.344 222.665L340.422 231.261L334.004 280.172L285.666 290.104L279.248 339.015Z" fill="#310349"/>
<path d="M226.715 253.096L224.755 250.393L226.522 247.898L225.215 247.898L223.507 250.304L223.507 247.898L222.386 247.898L222.386 253.096L223.507 253.096L223.507 250.564L225.342 253.096L226.715 253.096ZM231.589 247.898L230.386 247.898L229.183 249.984L227.987 247.898L226.792 247.898L228.604 250.994L228.604 253.096L229.755 253.096L229.755 251.002L231.589 247.898ZM234.27 253.215C235.555 253.215 236.565 252.353 236.802 251.069L235.666 251.069C235.48 251.722 234.953 252.138 234.27 252.138C233.386 252.138 232.725 251.44 232.725 250.504C232.725 249.568 233.386 248.863 234.27 248.863C234.923 248.863 235.443 249.249 235.659 249.858L236.78 249.858C236.542 248.625 235.532 247.786 234.27 247.786C232.74 247.786 231.582 248.96 231.582 250.504C231.582 252.041 232.74 253.215 234.27 253.215Z" fill="white"/>
<path d="M246.182 249.722L246.182 252.469C246.182 252.584 246.136 252.694 246.055 252.776C245.974 252.857 245.863 252.903 245.748 252.903L241.41 252.903C241.295 252.903 241.184 252.857 241.103 252.776C241.022 252.694 240.976 252.584 240.976 252.469L240.976 248.131C240.976 248.016 241.022 247.905 241.103 247.824C241.184 247.743 241.295 247.697 241.41 247.697L244.447 247.697" stroke="#C53DFF" stroke-width="0.742607" stroke-linecap="round" stroke-linejoin="round"/>
<path d="M242.422 249.721L243.868 250.878L246.037 247.842" stroke="#C53DFF" stroke-width="0.742607" stroke-linecap="round" stroke-linejoin="round"/>
</g>
</g>
<rect x="1.49316" y="1.32971" width="253" height="260.079" rx="6" stroke="url(#paint1_linear)" stroke-width="2"/>
<defs>
<linearGradient id="paint0_linear" x1="255.493" y1="269.334" x2="-6.67459" y2="7.50678" gradientUnits="userSpaceOnUse">
<stop stop-color="#19012B"/>
<stop offset="0.414583" stop-color="#2E0549"/>
<stop offset="0.677822" stop-color="#430F60"/>
<stop offset="0.916975" stop-color="#58147A"/>
<stop offset="0.997064" stop-color="#6A1096"/>
</linearGradient>
<linearGradient id="paint1_linear" x1="3.86243" y1="9.98909" x2="257.448" y2="249.817" gradientUnits="userSpaceOnUse">
<stop stop-color="#C53DFF"/>
<stop offset="0.307114" stop-color="#410E5D" stop-opacity="0"/>
<stop offset="0.739321" stop-color="#461064" stop-opacity="0"/>
<stop offset="1" stop-color="#720FA4"/>
</linearGradient>
<clipPath id="clip0">
<rect width="184.931" height="229.05" fill="white" transform="translate(249.733 99.2653) rotate(42.9396)"/>
</clipPath>
</defs>
</svg>
