<svg width="13" height="13" viewBox="0 0 13 13" fill="none" xmlns="http://www.w3.org/2000/svg">
<g clip-path="url(#clip0_41_699)">
<path d="M10.5242 2.51636H3.7456C3.60367 2.51636 3.46755 2.57274 3.36719 2.6731C3.26683 2.77346 3.21045 2.90958 3.21045 3.05151V11.6139C3.21045 11.7558 3.26683 11.892 3.36719 11.9923C3.46755 12.0927 3.60367 12.1491 3.7456 12.1491H10.5242C10.6661 12.1491 10.8022 12.0927 10.9026 11.9923C11.0029 11.892 11.0593 11.7558 11.0593 11.6139V3.05151C11.0593 2.90958 11.0029 2.77346 10.9026 2.6731C10.8022 2.57274 10.6661 2.51636 10.5242 2.51636ZM10.3458 11.4355H3.92398V3.22989H10.3458V11.4355Z" fill="#0466C8" fill-opacity="0.55"/>
<path d="M9.27464 1.26769C9.27464 1.12576 9.21826 0.989646 9.1179 0.889286C9.01754 0.788926 8.88142 0.732544 8.73949 0.732544H1.96093C1.819 0.732544 1.68288 0.788926 1.58252 0.889286C1.48216 0.989646 1.42578 1.12576 1.42578 1.26769V9.83009C1.42578 9.97202 1.48216 10.1081 1.58252 10.2085C1.68288 10.3089 1.819 10.3652 1.96093 10.3652H2.13931V1.44608H9.27464V1.26769Z" fill="#0466C8" fill-opacity="0.55"/>
</g>
<defs>
<clipPath id="clip0_41_699">
<rect width="12.8436" height="12.8436" fill="white" transform="translate(0 0.0189209)"/>
</clipPath>
</defs>
</svg>
