<svg width="26" height="25" viewBox="0 0 26 25" fill="none" xmlns="http://www.w3.org/2000/svg">
<path d="M13.0367 24.8969C19.8375 24.8969 25.3507 19.3838 25.3507 12.5829C25.3507 5.78209 19.8375 0.268921 13.0367 0.268921C6.23583 0.268921 0.722656 5.78209 0.722656 12.5829C0.722656 19.3838 6.23583 24.8969 13.0367 24.8969Z" fill="#5C6BC0"/>
<path d="M22.6773 15.1699C22.3879 12.6167 21.682 10.1281 20.5876 7.80332C20.2381 7.16136 19.6825 6.65589 19.0105 6.36851L18.9959 6.32748L18.4103 6.0666L18.3081 6.03923C17.8055 5.88599 17.3047 5.71268 16.7976 5.58316C16.4516 5.51049 16.1006 5.46354 15.7477 5.4427C15.708 5.43814 15.6679 5.43814 15.6282 5.4427C15.496 5.46185 15.4239 5.53938 15.4285 5.6461C15.4296 5.67064 15.4342 5.69492 15.4422 5.71817C16.0734 5.93891 16.7037 6.15874 17.333 6.38313C17.479 6.43512 17.6176 6.50534 17.7599 6.56554L18.4577 6.96051L18.7095 7.14293L18.9046 7.28706L18.8618 7.3591L18.2579 7.14933C16.3823 6.46952 14.4015 6.12584 12.4065 6.1341C10.4319 6.24656 8.49101 6.69637 6.66818 7.46402H6.65905C6.58882 7.48956 6.5204 7.52056 6.45017 7.54884L6.41186 7.47496C6.9099 7.1849 7.39516 6.86654 7.91053 6.61205C8.47606 6.33385 9.06985 6.11405 9.65271 5.86868L10.3469 5.66617L10.0942 5.41077L9.78315 5.46001C9.66001 5.46731 9.53599 5.46003 9.41833 5.48192C8.16053 5.66778 6.95751 6.1223 5.89104 6.81457C5.62862 6.96969 5.42034 7.20187 5.2945 7.47953C4.6701 8.85452 4.1517 10.2752 3.74384 11.7292C3.535 12.4914 3.37022 13.265 3.25035 14.0461C3.06428 14.7187 3.02265 15.4231 3.12815 16.113C3.2262 16.3354 3.37713 16.5305 3.5678 16.6813C4.77255 17.6391 6.21684 18.2483 7.74362 18.4426C7.9125 18.4944 8.09405 18.4864 8.25771 18.4199C8.42136 18.3535 8.55711 18.2326 8.64207 18.0778C8.84457 17.7786 9.08993 17.5077 9.32891 17.2131L9.35352 17.183L9.04159 17.0498L8.71595 16.9476L8.52533 16.8874L7.82296 16.5454C7.72079 16.4788 7.61772 16.4113 7.51647 16.3429C7.37235 16.2453 7.23003 16.1449 7.0923 16.0355C6.865 15.8593 6.65901 15.6573 6.47845 15.4335L8.16958 16.2489L8.86282 16.5362L9.30793 16.7041C10.0085 16.8482 10.709 16.9932 11.4059 17.1328C11.5121 17.145 11.6192 17.1481 11.726 17.1419L12.5214 16.3274L11.726 17.1428L12.567 17.1976L12.6199 17.1811C12.9328 17.1811 13.2457 17.1957 13.5586 17.1811C14.6391 17.1556 15.7082 16.9538 16.7237 16.5837L18.0919 16.0364L18.5699 15.7627L18.5873 15.7345L18.5708 15.7637L19.1491 15.4672L19.1856 15.5219C19.1546 15.5572 19.1227 15.5919 19.0898 15.6259C18.6855 16.055 18.2015 16.4013 17.665 16.6457L17.4169 16.7962L16.3972 17.1757L16.4145 17.2021L16.6297 17.5241L16.721 17.5962C16.897 17.8133 17.0858 18.0203 17.2445 18.2484C17.2911 18.3293 17.361 18.3944 17.4452 18.4349C17.5293 18.4754 17.6238 18.4896 17.7161 18.4755C19.3881 18.3328 20.9732 17.6689 22.2477 16.5773C22.4236 16.4299 22.5633 16.2443 22.6563 16.0346C22.7286 15.7833 22.7399 15.5184 22.6891 15.262C22.6864 15.2437 22.6818 15.2063 22.6773 15.1699ZM8.99504 14.4164C8.77766 14.2852 8.59105 14.1089 8.44783 13.8992C8.30461 13.6896 8.20816 13.4516 8.16501 13.2014C8.11941 12.8416 8.17368 12.4762 8.3219 12.1452C8.44418 11.8742 8.63655 11.6408 8.87919 11.469C9.12182 11.2973 9.40595 11.1934 9.70215 11.1681C9.99835 11.1428 10.2959 11.197 10.5641 11.3252C10.8324 11.4533 11.0615 11.6507 11.228 11.8971C11.3944 12.1784 11.5087 12.4873 11.5655 12.8092C11.5569 12.9976 11.5346 13.1851 11.4989 13.3702C11.3944 13.7772 11.1437 14.1315 10.7946 14.3654C10.4454 14.5993 10.0224 14.6963 9.60622 14.6381C9.39105 14.5957 9.1841 14.519 8.99326 14.4109L8.99504 14.4164ZM15.4129 14.5532C15.163 14.4851 14.9322 14.3599 14.739 14.1873C14.5457 14.0148 14.3951 13.7997 14.2992 13.559C14.2087 13.3174 14.1728 13.0588 14.1939 12.8017C14.215 12.5446 14.2927 12.2953 14.4213 12.0717C14.5499 11.8481 14.7263 11.6556 14.938 11.5081C15.1496 11.3606 15.3912 11.2617 15.6455 11.2184C15.9418 11.1813 16.2426 11.2219 16.5183 11.3363C16.7941 11.4507 17.0354 11.6348 17.2184 11.8707C17.4015 12.1065 17.52 12.386 17.5623 12.6815C17.6046 12.977 17.5693 13.2785 17.4598 13.5563C17.3026 13.9471 17.0056 14.2656 16.6266 14.4497C16.2476 14.6338 15.8138 14.6704 15.4093 14.5523L15.4129 14.5532ZM18.7432 15.5229L18.7176 15.5502L18.7423 15.5219L19.5286 14.7329L18.7432 15.5229Z" fill="white"/>
</svg>
