<svg width="13" height="13" viewBox="0 0 13 13" fill="none" xmlns="http://www.w3.org/2000/svg">
<path d="M7.17981 2.60292L10.0207 5.44329L9.48073 5.9833C8.95243 5.93939 8.42091 6.01113 7.92316 6.19353C7.42541 6.37592 6.97338 6.66459 6.59853 7.03944C6.22368 7.41429 5.93501 7.86632 5.75262 8.36407C5.57022 8.86182 5.49848 9.39334 5.54239 9.92164L4.44217 11.0219C4.2866 11.1774 4.0931 11.2897 3.88083 11.3474L1.00959 12.1305C0.938071 12.1499 0.862706 12.15 0.791109 12.1309C0.719512 12.1119 0.654218 12.0742 0.601825 12.0218C0.549431 11.9694 0.511793 11.9041 0.492713 11.8326C0.473633 11.761 0.473787 11.6856 0.493159 11.6141L1.27566 8.74227C1.33345 8.52999 1.44568 8.3365 1.60124 8.18093L7.17981 2.60292ZM11.1603 1.46341C11.5368 1.84014 11.7483 2.35097 11.7483 2.88359C11.7483 3.41622 11.5368 3.92704 11.1603 4.30378L10.6158 4.84827L7.77483 2.00791L8.31932 1.46341C8.50584 1.27683 8.72728 1.12882 8.97101 1.02783C9.21474 0.926853 9.47597 0.874878 9.73979 0.874878C10.0036 0.874878 10.2648 0.926853 10.5086 1.02783C10.7523 1.12882 10.9737 1.27683 11.1603 1.46341ZM7.37066 7.64036C7.41264 7.78553 7.42487 7.93767 7.40664 8.08768C7.3884 8.23769 7.34007 8.38247 7.26454 8.51335C7.18901 8.64423 7.08783 8.75852 6.96708 8.84936C6.84632 8.9402 6.70847 9.00573 6.56178 9.04202L6.23396 9.12286C6.18141 9.45902 6.18255 9.80139 6.23732 10.1372L6.54045 10.2102C6.6884 10.2458 6.82757 10.3112 6.94949 10.4022C7.07141 10.4933 7.17354 10.6083 7.24966 10.74C7.32579 10.8718 7.37433 11.0177 7.39233 11.1688C7.41034 11.3199 7.39743 11.4731 7.35439 11.6191L7.24941 11.9739C7.4964 12.1906 7.77707 12.3663 8.08244 12.4909L8.35974 12.2001C8.46461 12.0898 8.59082 12.002 8.7307 11.9419C8.87057 11.8819 9.02119 11.851 9.1734 11.851C9.32561 11.851 9.47622 11.8819 9.6161 11.9419C9.75597 12.002 9.88218 12.0898 9.98706 12.2001L10.2666 12.4948C10.5705 12.3712 10.8519 12.198 11.0991 11.9823L10.9879 11.5972C10.946 11.4521 10.9339 11.2999 10.9522 11.15C10.9705 11 11.0189 10.8553 11.0945 10.7244C11.1701 10.5936 11.2713 10.4794 11.3921 10.3886C11.5128 10.2978 11.6507 10.2324 11.7974 10.1961L12.1246 10.1153C12.1772 9.77895 12.1761 9.43639 12.1213 9.1004L11.8181 9.02743C11.6702 8.99179 11.531 8.92644 11.4091 8.83535C11.2872 8.74426 11.1851 8.62934 11.1089 8.49756C11.0328 8.36578 10.9843 8.21989 10.9663 8.06877C10.9482 7.91765 10.9612 7.76445 11.0042 7.61847L11.1092 7.26483C10.8622 7.04705 10.5807 6.87195 10.2761 6.74672L9.99941 7.03805C9.89453 7.14845 9.76828 7.23636 9.62836 7.29643C9.48843 7.3565 9.33774 7.38748 9.18547 7.38748C9.03319 7.38748 8.88251 7.3565 8.74258 7.29643C8.60265 7.23636 8.47641 7.14845 8.37153 7.03805L8.09198 6.74335C7.78661 6.86684 7.50595 7.04086 7.25952 7.25529L7.37066 7.64036ZM9.17873 10.4616C8.72966 10.4616 8.36479 10.0844 8.36479 9.61964C8.36479 9.15429 8.72966 8.77763 9.17873 8.77763C9.6278 8.77763 9.99267 9.15429 9.99267 9.61964C9.99267 10.0844 9.6278 10.4616 9.17873 10.4616Z" fill="white"/>
</svg>
