<svg width="13" height="13" viewBox="0 0 13 13" fill="none" xmlns="http://www.w3.org/2000/svg">
<path d="M9.22462 3.77533C9.1713 3.72198 9.10419 3.68452 9.03079 3.66716C8.95738 3.6498 8.8806 3.65321 8.80903 3.67702L5.15278 4.89577C5.0929 4.91574 5.03848 4.94937 4.99385 4.994C4.94922 5.03863 4.91559 5.09305 4.89562 5.15293L3.67687 8.80918C3.653 8.88076 3.64954 8.95757 3.66687 9.03101C3.6842 9.10445 3.72164 9.17161 3.77499 9.22496C3.82835 9.27832 3.89551 9.31576 3.96895 9.33309C4.04238 9.35042 4.1192 9.34695 4.19078 9.32308L7.84703 8.10433C7.90691 8.08437 7.96132 8.05074 8.00595 8.0061C8.05059 7.96147 8.08422 7.90706 8.10418 7.84718L9.32293 4.19093C9.34674 4.11936 9.35016 4.04257 9.33279 3.96917C9.31543 3.89577 9.27797 3.82865 9.22462 3.77533ZM4.70468 8.29568L5.6025 5.60305L7.39771 7.39827L4.70468 8.29568Z" fill="white"/>
<path d="M6.5 12.1875C5.37512 12.1875 4.2755 11.8539 3.3402 11.229C2.40489 10.604 1.67591 9.71577 1.24544 8.67651C0.814964 7.63726 0.702333 6.49369 0.921786 5.39043C1.14124 4.28716 1.68292 3.27374 2.47833 2.47833C3.27374 1.68292 4.28716 1.14124 5.39043 0.921786C6.49369 0.702333 7.63726 0.814964 8.67651 1.24544C9.71577 1.67591 10.604 2.40489 11.229 3.3402C11.8539 4.2755 12.1875 5.37512 12.1875 6.5C12.1858 8.00789 11.586 9.45353 10.5198 10.5198C9.45353 11.586 8.00789 12.1858 6.5 12.1875ZM6.5 1.625C5.53582 1.625 4.59329 1.91092 3.7916 2.44659C2.98991 2.98226 2.36507 3.74363 1.99609 4.63442C1.62711 5.52521 1.53057 6.50541 1.71867 7.45107C1.90678 8.39672 2.37108 9.26537 3.05286 9.94715C3.73464 10.6289 4.60328 11.0932 5.54894 11.2813C6.4946 11.4694 7.47479 11.3729 8.36558 11.0039C9.25637 10.6349 10.0177 10.0101 10.5534 9.20841C11.0891 8.40672 11.375 7.46419 11.375 6.5C11.3735 5.20753 10.8594 3.96843 9.94549 3.05452C9.03157 2.14061 7.79247 1.62651 6.5 1.625Z" fill="white"/>
</svg>
