<svg width="25" height="25" viewBox="0 0 25 25" fill="none" xmlns="http://www.w3.org/2000/svg">
<path d="M11.7601 0C13.3465 2.96378e-05 14.9166 0.320709 16.376 0.942763C17.8353 1.56482 19.1538 2.4754 20.2522 3.6198C21.3505 4.76419 22.2061 6.11876 22.7674 7.60209C23.3287 9.08543 23.5842 10.6669 23.5186 12.2515C22.9921 11.4652 22.2266 10.869 21.3352 10.5508C20.4438 10.2326 19.4737 10.2093 18.5681 10.4844C17.6625 10.7595 16.8693 11.3183 16.3057 12.0784C15.742 12.8386 15.4378 13.7597 15.4378 14.7059V14.7985C14.8061 14.9616 14.2466 15.3299 13.8471 15.8455C13.4477 16.3612 13.231 16.9949 13.2312 17.6471V23.4382C11.6368 23.6378 10.0184 23.5089 8.47574 23.0595C6.93309 22.61 5.49885 21.8495 4.2614 20.8248C3.02395 19.8002 2.00951 18.5331 1.28059 17.1016C0.551674 15.6701 0.123718 14.1045 0.0230979 12.5014C-0.0775225 10.8983 0.151324 9.29154 0.695534 7.78019C1.23974 6.26885 2.08779 4.88491 3.18741 3.71367C4.28703 2.54243 5.61494 1.60869 7.08929 0.970001C8.56365 0.331311 10.1532 0.00119615 11.7601 0ZM16.7 8.30294C16.5782 8.18173 16.4178 8.10698 16.2466 8.09167C16.0755 8.07636 15.9043 8.12145 15.7629 8.21912L15.66 8.30294L10.289 13.6735L7.86753 11.2515L7.76455 11.1662C7.62286 11.0686 7.45143 11.0238 7.2801 11.0395C7.10876 11.0552 6.94835 11.1304 6.82677 11.2521C6.70519 11.3738 6.63015 11.5343 6.61468 11.7056C6.59922 11.8769 6.64432 12.0482 6.74213 12.1897L6.82598 12.2926L9.76819 15.2338L9.87117 15.3176C9.994 15.4024 10.1397 15.4478 10.289 15.4478C10.4382 15.4478 10.5839 15.4024 10.7068 15.3176L10.8097 15.2324L16.7 9.34412L16.7854 9.24118C16.8833 9.09954 16.9283 8.92806 16.9128 8.7566C16.8972 8.58515 16.8219 8.42461 16.7 8.30294ZM19.8511 11.7647C20.6315 11.7647 21.3798 12.0746 21.9316 12.6262C22.4834 13.1777 22.7933 13.9258 22.7933 14.7059V16.1765H23.5289C23.9191 16.1765 24.2932 16.3314 24.5691 16.6072C24.845 16.883 25 17.257 25 17.6471V23.5294C25 23.9194 24.845 24.2935 24.5691 24.5693C24.2932 24.8451 23.9191 25 23.5289 25H16.1734C15.7832 25 15.409 24.8451 15.1332 24.5693C14.8573 24.2935 14.7023 23.9194 14.7023 23.5294V17.6471C14.7023 17.257 14.8573 16.883 15.1332 16.6072C15.409 16.3314 15.7832 16.1765 16.1734 16.1765H16.9089V14.7059C16.9089 13.9258 17.2189 13.1777 17.7707 12.6262C18.3225 12.0746 19.0708 11.7647 19.8511 11.7647ZM18.8876 21.1265C19.0304 21.3819 19.2688 21.5702 19.5505 21.6499C19.8322 21.7296 20.134 21.6942 20.3896 21.5515C20.6451 21.4087 20.8335 21.1703 20.9132 20.8888C20.9929 20.6072 20.9575 20.3055 20.8147 20.05C20.6719 19.7945 20.4334 19.6062 20.1518 19.5265C19.8701 19.4468 19.5683 19.4823 19.3127 19.625C19.0572 19.7677 18.8688 20.0061 18.7891 20.2877C18.7093 20.5693 18.7448 20.871 18.8876 21.1265ZM19.8511 13.2353C19.461 13.2353 19.0868 13.3902 18.8109 13.666C18.535 13.9418 18.38 14.3159 18.38 14.7059V16.1765H21.3222V14.7059C21.3222 14.3159 21.1672 13.9418 20.8914 13.666C20.6155 13.3902 20.2413 13.2353 19.8511 13.2353Z" fill="#CCE3FA"/>
</svg>
