<svg width="25" height="29" viewBox="0 0 25 29" fill="none" xmlns="http://www.w3.org/2000/svg">
<path fill-rule="evenodd" clip-rule="evenodd" d="M12.3584 0.166016C11.1509 0.166016 9.13316 0.629766 7.23441 1.14602C5.29191 1.67102 3.33366 2.29227 2.18216 2.66852C1.70072 2.82751 1.27389 3.11908 0.950712 3.50974C0.627533 3.90041 0.421111 4.37431 0.355158 4.87702C-0.687842 12.7118 1.73241 18.5183 4.66891 22.3595C5.91418 24.0027 7.39896 25.4497 9.07366 26.6523C9.74916 27.13 10.3757 27.4958 10.9077 27.746C11.3977 27.977 11.9244 28.166 12.3584 28.166C12.7924 28.166 13.3174 27.977 13.8092 27.746C14.4505 27.4343 15.0641 27.0684 15.6432 26.6523C17.3179 25.4498 18.8027 24.0027 20.0479 22.3595C22.9844 18.5183 25.4047 12.7118 24.3617 4.87702C24.2958 4.37407 24.0895 3.89989 23.7663 3.50892C23.4431 3.11796 23.0162 2.82607 22.5347 2.66677C20.8631 2.11869 19.1785 1.61104 17.4824 1.14427C15.5837 0.631516 13.5659 0.166016 12.3584 0.166016ZM12.3584 8.91602C12.9783 8.91509 13.5786 9.13359 14.0528 9.53282C14.5271 9.93205 14.8447 10.4862 14.9495 11.0972C15.0543 11.7082 14.9395 12.3366 14.6254 12.8711C14.3113 13.4055 13.8182 13.8115 13.2334 14.0173L13.9072 17.4998C13.9317 17.6264 13.9279 17.7569 13.896 17.882C13.8642 18.007 13.8051 18.1234 13.723 18.2229C13.6409 18.3224 13.5378 18.4026 13.4211 18.4576C13.3043 18.5125 13.1769 18.541 13.0479 18.541H11.6689C11.54 18.5408 11.4128 18.5121 11.2963 18.457C11.1798 18.4019 11.077 18.3217 10.995 18.2223C10.9131 18.1228 10.8542 18.0064 10.8224 17.8815C10.7907 17.7567 10.7869 17.6263 10.8114 17.4998L11.4834 14.0173C10.8986 13.8115 10.4055 13.4055 10.0914 12.8711C9.7773 12.3366 9.66248 11.7082 9.76728 11.0972C9.87208 10.4862 10.1897 9.93205 10.664 9.53282C11.1382 9.13359 11.7385 8.91509 12.3584 8.91602Z" fill="#0466C8"/>
</svg>
