<svg width="20" height="21" viewBox="0 0 20 21" fill="none" xmlns="http://www.w3.org/2000/svg">
<path d="M19.3763 11.3178C19.2939 11.3182 19.2122 11.3022 19.1359 11.2707C19.0596 11.2392 18.9902 11.1927 18.9317 11.1339L9.98265 2.06898L1.03359 11.1339C0.913791 11.2378 0.759687 11.292 0.602075 11.2859C0.444464 11.2797 0.294955 11.2136 0.183424 11.1007C0.0718926 10.9878 0.00655488 10.8364 0.000467043 10.6769C-0.00562079 10.5174 0.0479897 10.3614 0.150585 10.2401L9.54428 0.731426C9.66161 0.613359 9.82034 0.547089 9.98578 0.547089C10.1512 0.547089 10.3099 0.613359 10.4273 0.731426L19.821 10.2401C19.9072 10.3291 19.9655 10.4418 19.9887 10.5642C20.012 10.6866 19.9991 10.8132 19.9516 10.9281C19.9042 11.0431 19.8243 11.1414 19.722 11.2107C19.6197 11.28 19.4994 11.3172 19.3763 11.3178Z" fill="white"/>
<path d="M9.98273 4.21159L2.46777 11.8439V19.5586C2.46777 19.8948 2.59973 20.2173 2.83462 20.4551C3.06951 20.6928 3.38808 20.8264 3.72027 20.8264H8.10399V14.4873H11.8615V20.8264H16.2452C16.5774 20.8264 16.8959 20.6928 17.1308 20.4551C17.3657 20.2173 17.4977 19.8948 17.4977 19.5586V11.7995L9.98273 4.21159Z" fill="white"/>
</svg>
