<svg width="45" height="45" viewBox="0 0 45 45" fill="none" xmlns="http://www.w3.org/2000/svg">
<path d="M21.0561 0.165894C23.8483 0.165946 26.6117 0.730341 29.1801 1.82516C31.7486 2.91997 34.0691 4.52261 36.0022 6.53674C37.9353 8.55087 39.4411 10.9349 40.429 13.5456C41.4169 16.1562 41.8667 18.9396 41.7511 21.7285C40.8245 20.3446 39.4773 19.2953 37.9084 18.7353C36.3396 18.1753 34.6322 18.1343 33.0383 18.6184C31.4444 19.1026 30.0484 20.0861 29.0564 21.4239C28.0643 22.7618 27.5289 24.383 27.529 26.0482V26.2113C26.4172 26.4983 25.4324 27.1465 24.7293 28.054C24.0263 28.9615 23.645 30.0769 23.6453 31.2247V41.4172C20.8391 41.7685 17.9908 41.5416 15.2757 40.7505C12.5606 39.9595 10.0364 38.621 7.85846 36.8176C5.68055 35.0142 3.89514 32.7841 2.61224 30.2647C1.32934 27.7452 0.576143 24.9899 0.399051 22.1684C0.221959 19.3469 0.624728 16.519 1.58254 13.859C2.54035 11.1991 4.03291 8.76334 5.96824 6.70195C7.90358 4.64056 10.2407 2.99719 12.8356 1.87309C15.4304 0.749 18.2281 0.167999 21.0561 0.165894ZM29.7505 14.7791C29.5361 14.5657 29.2538 14.4342 28.9525 14.4072C28.6512 14.3803 28.35 14.4596 28.1012 14.6315L27.9199 14.7791L18.467 24.2313L14.2052 19.9685L14.024 19.8184C13.7746 19.6466 13.4729 19.5677 13.1714 19.5954C12.8698 19.623 12.5875 19.7554 12.3735 19.9696C12.1595 20.1839 12.0275 20.4663 12.0002 20.7678C11.973 21.0693 12.0524 21.3707 12.2246 21.6198L12.3721 21.801L17.5504 26.9774L17.7317 27.125C17.9478 27.2741 18.2043 27.354 18.467 27.354C18.7296 27.354 18.9861 27.2741 19.2023 27.125L19.3835 26.9748L29.7505 16.6115L29.9006 16.4304C30.0729 16.1811 30.1523 15.8793 30.1248 15.5775C30.0974 15.2758 29.9649 14.9932 29.7505 14.7791ZM35.2964 20.8718C36.6698 20.8718 37.9869 21.4172 38.958 22.3879C39.9291 23.3587 40.4747 24.6754 40.4747 26.0482V28.6365H41.7693C42.4559 28.6365 43.1145 28.9092 43.6001 29.3946C44.0856 29.8799 44.3584 30.5383 44.3584 31.2247V41.5777C44.3584 42.2641 44.0856 42.9224 43.6001 43.4078C43.1145 43.8932 42.4559 44.1659 41.7693 44.1659H28.8235C28.1369 44.1659 27.4783 43.8932 26.9927 43.4078C26.5072 42.9224 26.2344 42.2641 26.2344 41.5777V31.2247C26.2344 30.5383 26.5072 29.8799 26.9927 29.3946C27.4783 28.9092 28.1369 28.6365 28.8235 28.6365H30.1181V26.0482C30.1181 24.6754 30.6637 23.3587 31.6348 22.3879C32.6059 21.4172 33.923 20.8718 35.2964 20.8718ZM33.6005 37.3485C33.8518 37.7981 34.2715 38.1295 34.7673 38.2698C35.2631 38.4101 35.7943 38.3477 36.244 38.0965C36.6938 37.8452 37.0253 37.4257 37.1656 36.9301C37.306 36.4345 37.2436 35.9035 36.9923 35.4539C36.741 35.0043 36.3213 34.6729 35.8255 34.5326C35.3297 34.3923 34.7985 34.4547 34.3488 34.7059C33.899 34.9571 33.5675 35.3767 33.4272 35.8723C33.2868 36.3679 33.3492 36.8989 33.6005 37.3485ZM35.2964 23.46C34.6097 23.46 33.9512 23.7327 33.4656 24.2181C32.98 24.7035 32.7073 25.3618 32.7073 26.0482V28.6365H37.8855V26.0482C37.8855 25.3618 37.6128 24.7035 37.1272 24.2181C36.6416 23.7327 35.9831 23.46 35.2964 23.46Z" fill="#0466C8"/>
</svg>
