<svg width="21" height="28" viewBox="0 0 21 28" fill="none" xmlns="http://www.w3.org/2000/svg">
<path d="M19.5124 27.1353L17.0905 20.5715H16.4915C16.3526 20.9757 16.1443 21.5556 15.8665 22.3113C15.5888 23.067 15.3891 23.6118 15.2676 23.9457H12.0905V25.6327C12.0905 26.1072 11.9256 26.507 11.5957 26.8321C11.2658 27.1572 10.8709 27.3198 10.4108 27.3198C9.95074 27.3198 9.56011 27.1528 9.23893 26.8189C8.91775 26.485 8.75716 26.0896 8.75716 25.6327V23.9457H5.55404C5.44987 23.6118 5.2589 23.067 4.98112 22.3113C4.70334 21.5556 4.49501 20.9757 4.35612 20.5715H3.75716L1.33529 27.1353C0.727648 26.8189 0.423828 26.3181 0.423828 25.6327V20.5715C0.423828 20.097 0.866536 19.4161 1.75195 18.5286C2.63737 17.6411 3.30577 17.1974 3.75716 17.1974C3.75716 14.8074 4.03928 12.4613 4.60352 10.1591C5.16775 7.857 5.96202 5.82725 6.98633 4.06989C8.01063 2.31253 9.15647 1.0648 10.4238 0.326706C11.6912 1.0648 12.837 2.31253 13.8613 4.06989C14.8856 5.82725 15.6799 7.857 16.2441 10.1591C16.8084 12.4613 17.0905 14.8074 17.0905 17.1974C17.5419 17.1974 18.2103 17.6411 19.0957 18.5286C19.9811 19.4161 20.4238 20.097 20.4238 20.5715V25.6327C20.4238 26.3181 20.12 26.8189 19.5124 27.1353ZM10.4238 7.07498C9.50369 7.07498 8.7181 7.40448 8.06706 8.06349C7.41602 8.7225 7.09049 9.51771 7.09049 10.4491C7.09049 11.3805 7.41602 12.1757 8.06706 12.8347C8.7181 13.4937 9.50369 13.8232 10.4238 13.8232C11.344 13.8232 12.1296 13.4937 12.7806 12.8347C13.4316 12.1757 13.7572 11.3805 13.7572 10.4491C13.7572 9.51771 13.4316 8.7225 12.7806 8.06349C12.1296 7.40448 11.344 7.07498 10.4238 7.07498Z" fill="white"/>
</svg>
