<svg width="21" height="21" viewBox="0 0 21 21" fill="none" xmlns="http://www.w3.org/2000/svg">
<path d="M9.83188 0.504562C11.1011 0.504586 12.3571 0.764361 13.5246 1.26827C14.6921 1.77218 15.7469 2.50983 16.6256 3.43687C17.5042 4.36392 18.1887 5.46123 18.6377 6.66284C19.0868 7.86445 19.2912 9.14557 19.2387 10.4292C18.8175 9.79224 18.2051 9.30925 17.492 9.0515C16.7789 8.79375 16.0028 8.7749 15.2783 8.99773C14.5538 9.22056 13.9193 9.67326 13.4684 10.289C13.0174 10.9048 12.774 11.651 12.7741 12.4175V12.4925C12.2687 12.6246 11.8211 12.9229 11.5015 13.3406C11.182 13.7583 11.0086 14.2717 11.0088 14.8V19.4913C9.73325 19.653 8.43855 19.5486 7.20442 19.1845C5.9703 18.8204 4.8229 18.2043 3.83295 17.3743C2.84299 16.5442 2.03144 15.5178 1.4483 14.3581C0.865167 13.1985 0.522803 11.9303 0.442306 10.6317C0.36181 9.333 0.544887 8.03142 0.980255 6.80711C1.41562 5.58281 2.09406 4.46171 2.97376 3.51292C3.85346 2.56412 4.91578 1.80772 6.09526 1.29034C7.27475 0.772949 8.54641 0.505531 9.83188 0.504562ZM13.7839 7.23058C13.6864 7.13239 13.5581 7.07184 13.4211 7.05943C13.2842 7.04703 13.1473 7.08356 13.0342 7.16268L12.9518 7.23058L8.655 11.5812L6.71785 9.61911L6.63547 9.55002C6.52212 9.47097 6.38498 9.43465 6.2479 9.44738C6.11083 9.4601 5.98251 9.52106 5.88524 9.61965C5.78798 9.71824 5.72795 9.84823 5.71557 9.987C5.7032 10.1258 5.73928 10.2645 5.81753 10.3792L5.88462 10.4625L8.23838 12.8451L8.32076 12.913C8.41903 12.9817 8.5356 13.0184 8.655 13.0184C8.77439 13.0184 8.89097 12.9817 8.98923 12.913L9.07162 12.8439L13.7839 8.07401L13.8521 7.99062C13.9304 7.87589 13.9665 7.73697 13.954 7.59808C13.9416 7.45919 13.8813 7.32914 13.7839 7.23058ZM16.3047 10.0349C16.929 10.0349 17.5277 10.2859 17.9691 10.7327C18.4105 11.1795 18.6585 11.7856 18.6585 12.4175V13.6087H19.2469C19.5591 13.6087 19.8584 13.7343 20.0791 13.9577C20.2998 14.1811 20.4238 14.4841 20.4238 14.8V19.5652C20.4238 19.8811 20.2998 20.1841 20.0791 20.4076C19.8584 20.631 19.5591 20.7565 19.2469 20.7565H13.3625C13.0504 20.7565 12.7511 20.631 12.5303 20.4076C12.3096 20.1841 12.1856 19.8811 12.1856 19.5652V14.8C12.1856 14.4841 12.3096 14.1811 12.5303 13.9577C12.7511 13.7343 13.0504 13.6087 13.3625 13.6087H13.951V12.4175C13.951 11.7856 14.199 11.1795 14.6404 10.7327C15.0818 10.2859 15.6805 10.0349 16.3047 10.0349ZM15.5339 17.6186C15.6481 17.8256 15.8389 17.9781 16.0642 18.0427C16.2896 18.1072 16.531 18.0785 16.7355 17.9629C16.9399 17.8473 17.0906 17.6542 17.1544 17.4261C17.2182 17.1979 17.1898 16.9535 17.0756 16.7466C16.9614 16.5396 16.7706 16.3871 16.5452 16.3225C16.3199 16.258 16.0784 16.2867 15.874 16.4023C15.6696 16.518 15.5189 16.7111 15.4551 16.9392C15.3913 17.1673 15.4196 17.4117 15.5339 17.6186ZM16.3047 11.2262C15.9926 11.2262 15.6933 11.3517 15.4726 11.5751C15.2518 11.7985 15.1279 12.1015 15.1279 12.4175V13.6087H17.4816V12.4175C17.4816 12.1015 17.3576 11.7985 17.1369 11.5751C16.9162 11.3517 16.6169 11.2262 16.3047 11.2262Z" fill="white"/>
</svg>
