<svg width="19" height="18" viewBox="0 0 19 18" fill="none" xmlns="http://www.w3.org/2000/svg">
<path d="M8.06943 0.165894C9.10518 0.165946 10.1303 0.36174 11.0837 0.741599C12.0371 1.12146 12.8992 1.67761 13.6186 2.37687C14.3381 3.07614 14.9001 3.90422 15.2712 4.81171C15.6423 5.71921 15.8148 6.68754 15.7786 7.65897C15.3745 7.49438 14.9385 7.40976 14.498 7.41041V7.40558C14.4976 6.1605 14.0867 4.94604 13.3217 3.92879C12.5567 2.91153 11.475 2.14132 10.2252 1.7238C8.97528 1.30628 7.61836 1.2619 6.34053 1.59676C5.06271 1.93161 3.92657 2.62929 3.08797 3.5941C2.24937 4.5589 1.74939 5.74358 1.6566 6.98561C1.56381 8.22764 1.88277 9.4662 2.56971 10.5314C3.25666 11.5966 4.27795 12.4362 5.49349 12.9351C6.70902 13.434 8.05927 13.5678 9.35901 13.318V14.5439C8.30663 14.7109 7.22878 14.6712 6.19361 14.4272C5.15844 14.1832 4.18848 13.7403 3.34508 13.1264C2.50167 12.5126 1.80318 11.7412 1.29377 10.861C0.784352 9.98077 0.475105 9.01094 0.385583 8.01282C0.296061 7.01469 0.428211 6.01 0.773676 5.06226C1.11914 4.11453 1.67041 3.24439 2.3926 2.50686C3.1148 1.76934 3.99222 1.18048 4.96936 0.777535C5.94651 0.374587 7.00212 0.166316 8.06943 0.165894ZM7.10515 8.66288L10.7951 5.19024C10.9083 5.08294 11.0602 5.01935 11.2209 5.01205C11.3816 5.00474 11.5394 5.05425 11.6631 5.15078C11.7868 5.24731 11.8674 5.38386 11.889 5.53347C11.9107 5.68307 11.8718 5.83486 11.78 5.95885L11.7054 6.04331L7.56029 9.94309C7.45392 10.043 7.31356 10.1048 7.16366 10.1176C7.01376 10.1304 6.86383 10.0934 6.74 10.0131L6.65 9.9443L4.4 7.83272C4.28611 7.72631 4.21882 7.58373 4.21139 7.43307C4.20395 7.2824 4.25692 7.13459 4.35986 7.01876C4.46279 6.90293 4.60822 6.82749 4.76748 6.80729C4.92675 6.7871 5.08829 6.82362 5.22029 6.90966L5.31029 6.97844L7.10515 8.66288ZM12.5694 11.023C12.5399 11.023 12.509 11.023 12.4794 11.0254H11.9266C11.5856 11.0254 11.2586 11.1526 11.0174 11.3788C10.7763 11.6051 10.6409 11.912 10.6409 12.232V15.8519C10.6409 16.1719 10.7763 16.4788 11.0174 16.7051C11.2586 16.9314 11.5856 17.0585 11.9266 17.0585H17.0694C17.4104 17.0585 17.7375 16.9314 17.9786 16.7051C18.2197 16.4788 18.3552 16.1719 18.3552 15.8519V15.2486L18.359 12.8329C18.359 12.7955 18.3577 12.7569 18.3552 12.7195V12.232C18.3552 11.912 18.2197 11.6051 17.9786 11.3788C17.7375 11.1526 17.4104 11.0254 17.0694 11.0254H16.523C16.4922 11.0239 16.4613 11.0231 16.4304 11.023H16.4266V10.4269C16.4266 9.94692 16.2234 9.48656 15.8617 9.14714C15.5 8.80771 15.0095 8.61702 14.498 8.61702C13.9865 8.61702 13.496 8.80771 13.1343 9.14714C12.7726 9.48656 12.5694 9.94692 12.5694 10.4269V11.023ZM13.8551 10.4269C13.8551 10.2669 13.9229 10.1135 14.0434 10.0003C14.164 9.8872 14.3275 9.82364 14.498 9.82364C14.6685 9.82364 14.832 9.8872 14.9526 10.0003C15.0731 10.1135 15.1409 10.2669 15.1409 10.4269V11.023H13.8551V10.4269ZM14.498 14.6453C14.3275 14.6453 14.164 14.5817 14.0434 14.4686C13.9229 14.3554 13.8551 14.202 13.8551 14.042C13.8551 13.882 13.9229 13.7285 14.0434 13.6154C14.164 13.5022 14.3275 13.4387 14.498 13.4387C14.6685 13.4387 14.832 13.5022 14.9526 13.6154C15.0731 13.7285 15.1409 13.882 15.1409 14.042C15.1409 14.202 15.0731 14.3554 14.9526 14.4686C14.832 14.5817 14.6685 14.6453 14.498 14.6453Z" fill="#CCE3FA"/>
</svg>
