<svg width="321" height="310" viewBox="0 0 321 310" fill="none" xmlns="http://www.w3.org/2000/svg">
<g clip-path="url(#clip0)">
<path d="M149.336 247.565L59.1202 264.948L49.1786 336.218L32.9052 322.018L42.8768 250.774L133.093 233.391L145.072 147.795L235.289 130.412L247.268 44.8157L325.479 29.746L341.752 43.9455L263.512 58.9889L251.532 144.585L161.316 161.968L149.336 247.565Z" fill="#164574" fill-opacity="0.3"/>
<path d="M182.245 276.279L92.0292 293.661L82.0576 364.905L65.8142 350.732L75.7557 279.462L165.972 262.079L177.951 176.483L268.168 159.1L280.147 73.5033L358.388 58.4599L374.631 72.6332L296.421 87.7028L284.441 173.299L194.225 190.682L182.245 276.279Z" fill="#164574" fill-opacity="0.3"/>
<path d="M215.123 304.967L124.906 322.349L114.935 393.593L98.6913 379.42L108.663 308.176L198.879 290.793L210.859 205.197L301.075 187.814L313.054 102.218L391.265 87.1479L407.508 101.321L329.298 116.391L317.318 201.987L227.102 219.37L215.123 304.967Z" fill="#164574" fill-opacity="0.3"/>
<path d="M248 333.654L157.783 351.037L147.842 422.307L131.568 408.107L141.54 336.864L231.756 319.481L243.736 233.884L333.952 216.502L345.931 130.905L424.142 115.836L440.415 130.035L362.175 145.078L350.195 230.675L259.979 248.058L248 333.654Z" fill="#164574" fill-opacity="0.3"/>
<path d="M280.909 362.368L190.692 379.751L180.721 450.995L164.477 436.822L174.419 365.552L264.635 348.169L276.614 262.572L366.831 245.189L378.81 159.593L457.051 144.549L473.294 158.723L395.084 173.792L383.104 259.389L292.888 276.772L280.909 362.368Z" fill="#164574" fill-opacity="0.3"/>
<path d="M313.786 391.056L223.569 408.439L213.598 479.682L197.354 465.509L207.326 394.265L297.542 376.883L309.522 291.286L399.738 273.903L411.717 188.307L489.928 173.237L506.171 187.41L427.961 202.48L415.981 288.076L325.765 305.459L313.786 391.056Z" fill="#164574" fill-opacity="0.3"/>
<path d="M346.665 419.743L256.448 437.126L246.507 508.396L230.233 494.197L240.205 422.953L330.421 405.57L342.401 319.974L432.617 302.591L444.596 216.994L522.807 201.925L539.08 216.124L460.84 231.168L448.86 316.764L358.644 334.147L346.665 419.743Z" fill="#164574" fill-opacity="0.3"/>
</g>
<defs>
<clipPath id="clip0">
<rect width="335.34" height="413.429" fill="white" transform="matrix(0.753489 0.657461 -0.704401 0.709802 291.578 0.165894)"/>
</clipPath>
</defs>
</svg>
