<svg width="15" height="14" viewBox="0 0 15 14" fill="none" xmlns="http://www.w3.org/2000/svg">
<path d="M6.0004 -0.000244141C6.80598 -0.000200656 7.6033 0.162066 8.34482 0.476881C9.08635 0.791695 9.75688 1.25261 10.3164 1.83214C10.876 2.41167 11.3131 3.09795 11.6017 3.85005C11.8904 4.60215 12.0246 5.40467 11.9964 6.20976C11.6821 6.07335 11.343 6.00322 11.0004 6.00376V5.99976C11.0001 4.96788 10.6805 3.96137 10.0855 3.11831C9.49048 2.27525 8.64921 1.63692 7.67708 1.2909C6.70495 0.94487 5.64956 0.908091 4.6557 1.18561C3.66184 1.46312 2.77817 2.04133 2.12593 2.84093C1.47369 3.64053 1.08481 4.62234 1.01264 5.6517C0.940475 6.68105 1.18855 7.70752 1.72284 8.59031C2.25713 9.47309 3.05147 10.169 3.99689 10.5824C4.9423 10.9959 5.99249 11.1068 7.0034 10.8998V11.9158C6.18489 12.0542 5.34655 12.0212 4.54142 11.819C3.73629 11.6168 2.98188 11.2497 2.3259 10.741C1.66992 10.2323 1.12665 9.59294 0.730437 8.86346C0.334227 8.13398 0.0937013 7.33022 0.024073 6.50301C-0.0455554 5.6758 0.0572283 4.84314 0.325924 4.0577C0.594619 3.27225 1.02338 2.5511 1.58509 1.93987C2.1468 1.32864 2.82923 0.840612 3.58923 0.506663C4.34923 0.172714 5.17026 0.000106075 6.0004 -0.000244141ZM5.2504 7.04176L8.1204 4.16376C8.20842 4.07483 8.32659 4.02213 8.45157 4.01608C8.57654 4.01003 8.69925 4.05105 8.79546 4.13105C8.89166 4.21106 8.95437 4.32423 8.97121 4.44821C8.98805 4.5722 8.95779 4.69799 8.8864 4.80076L8.8284 4.87076L5.6044 8.10276C5.52167 8.18558 5.4125 8.23676 5.29591 8.24735C5.17932 8.25795 5.06271 8.22731 4.9664 8.16076L4.8964 8.10376L3.1464 6.35376C3.05782 6.26557 3.00548 6.1474 2.9997 6.02253C2.99392 5.89767 3.03512 5.77517 3.11517 5.67917C3.19523 5.58318 3.30834 5.52065 3.43222 5.50392C3.55609 5.48718 3.68174 5.51745 3.7844 5.58876L3.8544 5.64576L5.2504 7.04176ZM9.5004 8.99776C9.4774 8.99776 9.4534 8.99776 9.4304 8.99976H9.0004C8.73518 8.99976 8.48083 9.10511 8.29329 9.29265C8.10576 9.48019 8.0004 9.73454 8.0004 9.99976V12.9998C8.0004 13.265 8.10576 13.5193 8.29329 13.7069C8.48083 13.8944 8.73518 13.9998 9.0004 13.9998H13.0004C13.2656 13.9998 13.52 13.8944 13.7075 13.7069C13.895 13.5193 14.0004 13.265 14.0004 12.9998V12.4998L14.0034 10.4978C14.0034 10.4668 14.0024 10.4348 14.0004 10.4038V9.99976C14.0004 9.73454 13.895 9.48019 13.7075 9.29265C13.52 9.10511 13.2656 8.99976 13.0004 8.99976H12.5754C12.5514 8.99852 12.5274 8.99785 12.5034 8.99776H12.5004V8.50376C12.5004 8.10593 12.3424 7.7244 12.0611 7.4431C11.7798 7.16179 11.3982 7.00376 11.0004 7.00376C10.6026 7.00376 10.221 7.16179 9.93974 7.4431C9.65843 7.7244 9.5004 8.10593 9.5004 8.50376V8.99776ZM10.5004 8.50376C10.5004 8.37115 10.5531 8.24397 10.6468 8.1502C10.7406 8.05643 10.8678 8.00376 11.0004 8.00376C11.133 8.00376 11.2602 8.05643 11.354 8.1502C11.4477 8.24397 11.5004 8.37115 11.5004 8.50376V8.99776H10.5004V8.50376ZM11.0004 11.9998C10.8678 11.9998 10.7406 11.9471 10.6468 11.8533C10.5531 11.7595 10.5004 11.6324 10.5004 11.4998C10.5004 11.3671 10.5531 11.24 10.6468 11.1462C10.7406 11.0524 10.8678 10.9998 11.0004 10.9998C11.133 10.9998 11.2602 11.0524 11.354 11.1462C11.4477 11.24 11.5004 11.3671 11.5004 11.4998C11.5004 11.6324 11.4477 11.7595 11.354 11.8533C11.2602 11.9471 11.133 11.9998 11.0004 11.9998Z" fill="#12BC0F"/>
</svg>
