<svg width="15" height="16" viewBox="0 0 15 16" fill="none" xmlns="http://www.w3.org/2000/svg">
<path d="M6.17513 2.82239L1.74805 5.31253V10.625M2.81055 12.2854L7.41471 14.875L10.248 13.2813L12.0189 12.285L2.81055 12.2854ZM13.0814 10.625V5.31253L8.6543 2.82239L13.0814 10.625Z" stroke="#C53DFF" stroke-width="1.02256" stroke-linecap="round" stroke-linejoin="round"/>
<path d="M6.35254 6.64054L5.29004 7.26034V9.7395L6.35254 10.3593L7.41504 10.9791L8.47754 10.3593L9.54004 9.7395V7.26034L8.47754 6.64054L7.41504 6.02075L6.35254 6.64054Z" fill="white" stroke="#C53DFF" stroke-width="1.02256" stroke-linecap="round" stroke-linejoin="round"/>
<path d="M5.28971 9.56246L2.81055 10.9791M7.41471 6.02079V3.54163V6.02079ZM9.53971 9.56246L12.0189 10.9791L9.53971 9.56246Z" stroke="#C53DFF" stroke-width="1.02256" stroke-linecap="round" stroke-linejoin="round"/>
<path d="M7.41504 3.54163C8.00184 3.54163 8.47754 3.06593 8.47754 2.47913C8.47754 1.89232 8.00184 1.41663 7.41504 1.41663C6.82824 1.41663 6.35254 1.89232 6.35254 2.47913C6.35254 3.06593 6.82824 3.54163 7.41504 3.54163Z" fill="white" stroke="#C53DFF" stroke-width="1.02256" stroke-linecap="round" stroke-linejoin="round"/>
<path d="M1.74805 12.75C2.33485 12.75 2.81055 12.2743 2.81055 11.6875C2.81055 11.1007 2.33485 10.625 1.74805 10.625C1.16124 10.625 0.685547 11.1007 0.685547 11.6875C0.685547 12.2743 1.16124 12.75 1.74805 12.75Z" fill="white" stroke="#C53DFF" stroke-width="1.02256" stroke-linecap="round" stroke-linejoin="round"/>
<path d="M13.0811 12.75C13.6679 12.75 14.1436 12.2743 14.1436 11.6875C14.1436 11.1007 13.6679 10.625 13.0811 10.625C12.4943 10.625 12.0186 11.1007 12.0186 11.6875C12.0186 12.2743 12.4943 12.75 13.0811 12.75Z" fill="white" stroke="#C53DFF" stroke-width="1.02256" stroke-linecap="round" stroke-linejoin="round"/>
</svg>
