<svg width="201" height="16" viewBox="0 0 201 16" fill="none" xmlns="http://www.w3.org/2000/svg">
<path d="M193.971 12.5406L3.04356 9.58301C1.6415 9.58301 0.569336 8.72039 0.569336 7.67293C0.569336 6.62547 1.6415 5.82446 3.04356 5.76285L193.971 2.8053C197.6 2.74369 200.569 4.90023 200.569 7.61131C200.569 10.4456 197.6 12.6022 193.971 12.5406Z" fill="#58147A"/>
<path d="M114.18 4.3038L3.07061 6.11323C1.88523 6.11323 0.857904 6.73717 0.620829 7.67308C0.304729 8.85856 1.4901 9.91926 2.91256 9.98166L114.101 11.7911C116.709 11.8535 118.921 10.1688 118.921 8.04744C118.921 5.92605 116.788 4.24141 114.18 4.3038Z" fill="#C53DFF"/>
<mask id="mask0" style="mask-type:alpha" maskUnits="userSpaceOnUse" x="0" y="4" width="119" height="8">
<path d="M114.185 4.39204L3.19201 6.17565C2.00788 6.17565 0.981626 6.79069 0.744799 7.71326C0.429029 8.88183 1.61317 9.9274 3.03413 9.9889L114.106 11.7725C116.711 11.834 118.922 10.1734 118.922 8.08228C118.922 5.99114 116.79 4.33053 114.185 4.39204Z" fill="#00AEEF"/>
</mask>
<g mask="url(#mask0)">
<path d="M3.82336 -0.651367L-12.8335 13.6176L-10.1495 13.6791L6.58634 -0.651367H3.82336Z" fill="#D164FF"/>
<path d="M12.1128 -0.651367L-4.62305 13.6176L-1.939 13.6791L14.7968 -0.651367H12.1128Z" fill="#D164FF"/>
<path d="M20.3227 -0.651367L3.58691 13.6176L6.3499 13.6791L23.0068 -0.651367H20.3227Z" fill="#D164FF"/>
<path d="M28.5328 -0.651367L11.876 13.6176L14.56 13.6791L31.2169 -0.651367H28.5328Z" fill="#D164FF"/>
<path d="M36.7423 -0.651367L20.0854 13.6176L22.7695 13.6791L39.4263 -0.651367H36.7423Z" fill="#D164FF"/>
<path d="M44.9527 -0.651367L28.2959 13.6176L30.9799 13.6791L47.7157 -0.651367H44.9527Z" fill="#D164FF"/>
<path d="M53.1627 -0.651367L36.5059 13.6176L39.1899 13.6791L55.9257 -0.651367H53.1627Z" fill="#D164FF"/>
<path d="M61.4511 -0.651367L44.7153 13.6176L47.3994 13.6791L64.1352 -0.651367H61.4511Z" fill="#D164FF"/>
<path d="M69.6611 -0.651367L52.9253 13.6176L55.6883 13.6791L72.3451 -0.651367H69.6611Z" fill="#D164FF"/>
<path d="M77.8717 -0.651367L61.2148 13.6176L63.8989 13.6791L80.5557 -0.651367H77.8717Z" fill="#D164FF"/>
<path d="M86.0817 -0.651367L69.4248 13.6176L72.1088 13.6791L88.7657 -0.651367H86.0817Z" fill="#D164FF"/>
<path d="M94.2916 -0.651367L77.6348 13.6176L80.3188 13.6791L97.0546 -0.651367H94.2916Z" fill="#D164FF"/>
<path d="M102.502 -0.651367L85.8447 13.6176L88.5288 13.6791L105.265 -0.651367H102.502Z" fill="#D164FF"/>
<path d="M110.79 -0.651367L94.0547 13.6176L96.7387 13.6791L113.475 -0.651367H110.79Z" fill="#D164FF"/>
<path d="M119.001 -0.651367L102.265 13.6176L105.028 13.6791L121.685 -0.651367H119.001Z" fill="#D164FF"/>
<path d="M127.211 -0.651367L110.554 13.6176L113.238 13.6791L129.895 -0.651367H127.211Z" fill="#D164FF"/>
</g>
<path d="M116.427 14.1097C119.756 14.1097 122.455 11.4112 122.455 8.08233C122.455 4.75349 119.756 2.05493 116.427 2.05493C113.098 2.05493 110.4 4.75349 110.4 8.08233C110.4 11.4112 113.098 14.1097 116.427 14.1097Z" fill="#C53DFF" stroke="#F0D5FD" stroke-width="2.1235" stroke-miterlimit="10"/>
</svg>
