<svg width="87" height="23" viewBox="0 0 87 23" fill="none" xmlns="http://www.w3.org/2000/svg">
<path d="M29.4569 3.58057C30.819 3.58057 31.9572 4.0189 32.8716 4.89556C33.3176 5.31655 33.67 5.82665 33.906 6.39272C34.142 6.95879 34.2563 7.56817 34.2414 8.18128C34.2566 8.79392 34.1425 9.4029 33.9065 9.96845C33.6705 10.534 33.3178 11.0434 32.8716 11.4635C31.9584 12.3366 30.8202 12.7732 29.4569 12.7732H26.2842V16.5326H23.4563V3.58057H29.4569ZM29.3826 9.40084C29.9942 9.40084 30.4696 9.29361 30.809 9.07916C30.9641 8.98558 31.0925 8.8535 31.1816 8.69572C31.2706 8.53794 31.3175 8.35983 31.3175 8.17863C31.3175 7.99744 31.2706 7.81932 31.1816 7.66155C31.0925 7.50377 30.9641 7.37169 30.809 7.27811C30.4696 7.06837 29.9942 6.96291 29.3826 6.96173H26.2842V9.40084H29.3826Z" fill="#0466C8"/>
<path d="M37.9901 9.22594C38.8149 7.61401 39.9237 6.80745 41.3165 6.80627V10.8396C39.106 10.8396 37.9972 11.4965 37.9901 12.8104V16.5326H35.3601V6.96181H37.9901V9.22594Z" fill="#0466C8"/>
<path d="M50.9333 15.322C49.9365 16.2823 48.6992 16.7619 47.2216 16.7607C45.744 16.7596 44.5068 16.28 43.51 15.322C43.0244 14.8632 42.6405 14.3075 42.3832 13.691C42.1259 13.0745 42.001 12.4108 42.0164 11.7429C42.0008 11.0755 42.1257 10.4123 42.383 9.7963C42.6403 9.18031 43.0243 8.6253 43.51 8.1673C44.5068 7.21169 45.744 6.73389 47.2216 6.73389C48.6992 6.73389 49.9365 7.21169 50.9333 8.1673C51.419 8.6253 51.8029 9.18031 52.0602 9.7963C52.3175 10.4123 52.4424 11.0755 52.4268 11.7429C52.4423 12.4108 52.3173 13.0745 52.06 13.691C51.8028 14.3075 51.4189 14.8632 50.9333 15.322ZM45.4542 12.9943C45.9891 13.318 46.6025 13.4892 47.2278 13.4892C47.8531 13.4892 48.4665 13.318 49.0015 12.9943C49.2171 12.8648 49.3955 12.6818 49.5194 12.463C49.6432 12.2442 49.7083 11.997 49.7083 11.7455C49.7083 11.4941 49.6432 11.2469 49.5194 11.0281C49.3955 10.8093 49.2171 10.6262 49.0015 10.4968C48.4677 10.1698 47.8538 9.99673 47.2278 9.99673C46.6018 9.99673 45.988 10.1698 45.4542 10.4968C45.239 10.6266 45.061 10.8097 44.9374 11.0285C44.8139 11.2473 44.749 11.4943 44.749 11.7455C44.749 11.9968 44.8139 12.2438 44.9374 12.4626C45.061 12.6814 45.239 12.8645 45.4542 12.9943Z" fill="#0466C8"/>
<path d="M59.891 3.58057C61.2531 3.58057 62.3914 4.0189 63.3057 4.89556C63.7521 5.31628 64.1047 5.82633 64.3407 6.39246C64.5768 6.9586 64.6908 7.56811 64.6755 8.18128C64.6911 8.79397 64.5771 9.40304 64.3411 9.96864C64.105 10.5342 63.7522 11.0436 63.3057 11.4635C62.3914 12.3366 61.2531 12.7732 59.891 12.7732H56.7095V16.5326H53.8816V3.58057H59.891ZM59.8185 9.40084C60.4289 9.40084 60.9037 9.29361 61.2431 9.07916C61.3982 8.98558 61.5266 8.8535 61.6157 8.69572C61.7048 8.53794 61.7516 8.35983 61.7516 8.17863C61.7516 7.99744 61.7048 7.81932 61.6157 7.66155C61.5266 7.50377 61.3982 7.37169 61.2431 7.27811C60.9037 7.06837 60.4289 6.96291 59.8185 6.96173H56.7095V9.40084H59.8185Z" fill="#27AAE1"/>
<path d="M72.6839 6.96183H75.3138V16.5327H72.6839V14.8995C71.9557 16.1403 70.9046 16.7607 69.5307 16.7607C68.9196 16.7724 68.3134 16.6497 67.755 16.401C67.1967 16.1524 66.6999 15.784 66.2998 15.322C65.4337 14.3628 65.0013 13.1698 65.0024 11.7428C65.0036 10.3159 65.4361 9.12404 66.2998 8.16725C66.7007 7.70654 67.1978 7.3394 67.756 7.09173C68.3143 6.84406 68.9201 6.72189 69.5307 6.73383C70.9058 6.73383 71.9568 7.35421 72.6839 8.59497V6.96183ZM68.4296 12.9942C68.9645 13.318 69.5779 13.4892 70.2032 13.4892C70.8285 13.4892 71.4419 13.318 71.9769 12.9942C72.1925 12.8648 72.3709 12.6818 72.4948 12.4629C72.6186 12.2441 72.6837 11.9969 72.6837 11.7455C72.6837 11.494 72.6186 11.2469 72.4948 11.028C72.3709 10.8092 72.1925 10.6262 71.9769 10.4968C71.4431 10.1697 70.8292 9.99667 70.2032 9.99667C69.5772 9.99667 68.9634 10.1697 68.4296 10.4968C68.2144 10.6265 68.0364 10.8097 67.9128 11.0284C67.7893 11.2472 67.7244 11.4942 67.7244 11.7455C67.7244 11.9967 67.7893 12.2437 67.9128 12.4625C68.0364 12.6813 68.2144 12.8645 68.4296 12.9942Z" fill="#27AAE1"/>
<path d="M84.3699 3.01147H86.9999V16.5326H84.3699V14.8995C83.6417 16.1402 82.5906 16.7606 81.2167 16.7606C80.6056 16.7724 79.9994 16.6496 79.4411 16.401C78.8827 16.1523 78.3859 15.7839 77.9858 15.3219C77.1162 14.3627 76.6814 13.1697 76.6814 11.7428C76.6814 10.3158 77.1138 9.12397 77.9787 8.16718C78.3796 7.70647 78.8767 7.33933 79.435 7.09166C79.9932 6.84399 80.599 6.72182 81.2096 6.73376C82.5847 6.73376 83.6358 7.35414 84.3628 8.5949L84.3699 3.01147ZM80.1156 12.9941C80.6505 13.3179 81.2639 13.4891 81.8892 13.4891C82.5146 13.4891 83.1279 13.3179 83.6629 12.9941C83.8785 12.8647 84.0569 12.6817 84.1808 12.4629C84.3047 12.244 84.3698 11.9969 84.3698 11.7454C84.3698 11.494 84.3047 11.2468 84.1808 11.028C84.0569 10.8091 83.8785 10.6261 83.6629 10.4967C83.1291 10.1697 82.5153 9.9966 81.8892 9.9966C81.2632 9.9966 80.6494 10.1697 80.1156 10.4967C79.9004 10.6264 79.7224 10.8096 79.5989 11.0284C79.4753 11.2472 79.4104 11.4942 79.4104 11.7454C79.4104 11.9967 79.4753 12.2437 79.5989 12.4625C79.7224 12.6812 79.9004 12.8644 80.1156 12.9941Z" fill="#27AAE1"/>
<path d="M11.3785 5.2173C11.7046 5.71031 11.8672 6.29343 11.8433 6.88402C11.8674 7.4752 11.7048 8.05896 11.3785 8.55251C11.2559 8.75335 11.0841 8.91961 10.8794 9.03558C10.6747 9.15156 10.4437 9.21342 10.2084 9.21531C9.97225 9.21312 9.74045 9.1512 9.53463 9.03531C9.32881 8.91942 9.15566 8.75333 9.03131 8.55251C8.70376 8.05937 8.53988 7.47558 8.56293 6.88402C8.54013 6.29305 8.70401 5.7099 9.03131 5.2173C9.15557 5.01627 9.32866 4.84992 9.53446 4.73373C9.74027 4.61754 9.97212 4.55528 10.2084 4.55273C10.4439 4.55498 10.6748 4.61718 10.8796 4.73346C11.0843 4.84973 11.256 5.01625 11.3785 5.2173Z" fill="#0466C8"/>
<path d="M8.26822 0.349732C6.63347 0.349033 5.03523 0.833153 3.67565 1.74086C2.31606 2.64857 1.25621 3.93909 0.63013 5.4492C0.0040538 6.95932 -0.160119 8.62118 0.158376 10.2246C0.476872 11.828 1.26373 13.301 2.41942 14.4572C3.57512 15.6134 5.04774 16.4008 6.65102 16.72C8.25431 17.0392 9.91624 16.8757 11.4266 16.2503C12.937 15.6249 14.228 14.5656 15.1363 13.2064C16.0446 11.8472 16.5294 10.2492 16.5294 8.61441C16.5296 7.52931 16.3161 6.45479 15.9011 5.4522C15.486 4.44961 14.8776 3.53858 14.1105 2.77113C13.3433 2.00369 12.4326 1.39485 11.4302 0.979385C10.4277 0.563921 9.35332 0.349964 8.26822 0.349732ZM13.5706 10.3695C13.1411 10.8272 12.6202 11.1896 12.0417 11.4331C11.4632 11.6767 10.84 11.7961 10.2124 11.7835C9.58475 11.797 8.96128 11.678 8.38266 11.4344C7.80403 11.1907 7.28324 10.8279 6.85424 10.3695C6.40963 9.90694 6.06144 9.36059 5.82992 8.76222C5.5984 8.16385 5.48818 7.52542 5.50567 6.88406C5.48828 6.24271 5.59854 5.60431 5.83006 5.00596C6.06157 4.4076 6.40971 3.86123 6.85424 3.39861C7.28439 2.94241 7.80563 2.58173 8.38416 2.33996C8.96269 2.0982 9.58558 1.98075 10.2124 1.99524C10.8392 1.98164 11.4618 2.09948 12.0402 2.34119C12.6186 2.58291 13.1399 2.94312 13.5706 3.39861C14.0166 3.86046 14.366 4.40657 14.5985 5.00502C14.8309 5.60348 14.9418 6.24227 14.9245 6.88406C14.9416 7.52598 14.8306 8.16488 14.5978 8.76335C14.365 9.36183 14.0152 9.90787 13.5689 10.3695H13.5706Z" fill="#0466C8"/>
<path d="M15.4778 18.1251H1.05707C0.47529 18.1251 0.00366211 18.5967 0.00366211 19.1785V21.1881C0.00366211 21.7699 0.47529 22.2416 1.05707 22.2416H15.4778C16.0596 22.2416 16.5312 21.7699 16.5312 21.1881V19.1785C16.5312 18.5967 16.0596 18.1251 15.4778 18.1251Z" fill="#0466C8"/>
</svg>