<svg width="25" height="25" viewBox="0 0 25 25" fill="none" xmlns="http://www.w3.org/2000/svg">
<path d="M17.8513 19.9208L16.6462 13.6201L12.184 17.1385L13.9712 19.4407L9.63136 23.4393C9.54497 23.5188 9.48867 23.6257 9.47198 23.7418C9.45528 23.858 9.47921 23.9764 9.53973 24.077C9.60024 24.1775 9.69362 24.2541 9.80409 24.2938C9.91456 24.3334 10.0353 24.3337 10.146 24.2946L16.6588 21.9976C17.0732 21.8513 17.4213 21.5613 17.6401 21.1803C17.8589 20.7992 17.9339 20.3524 17.8513 19.9208Z" fill="#EF5361"/>
<path d="M5.39971 7.46927L11.7004 8.67425L8.18201 13.1366L5.87978 11.3494L1.88117 15.6896C1.80168 15.7759 1.69485 15.8321 1.57874 15.8487C1.46262 15.8653 1.34432 15.8414 1.24382 15.7809C1.14332 15.7204 1.06677 15.6271 1.02709 15.5167C0.98742 15.4063 0.987055 15.2856 1.02606 15.175L3.32292 8.66215C3.46912 8.24774 3.75906 7.89949 4.14012 7.68061C4.52118 7.46174 4.96808 7.38675 5.39971 7.46927Z" fill="#EF5361"/>
<path d="M19.4158 1.23217C17.0552 1.95996 14.1857 3.56955 11.4886 7.01186C8.37949 10.9801 6.69866 13.2563 5.79785 14.5344L10.8019 19.5385C12.0801 18.6377 14.3562 16.9568 18.3245 13.8477C21.7666 11.1507 23.3764 8.28117 24.1045 5.92075L19.4158 1.23217Z" fill="#DBE2EB"/>
<path d="M18.3248 13.8483C14.3562 16.9566 12.0808 18.6373 10.8019 19.5392L9.88574 18.6231C11.165 17.7221 13.4415 16.042 17.4087 12.9323C20.8515 10.2354 22.4608 7.36577 23.1887 5.00611L24.1034 5.92094C23.3769 8.28174 21.7662 11.1501 18.3248 13.8483Z" fill="#C8CBD2"/>
<path d="M24.6343 1.51714C24.6178 1.30655 24.5268 1.10874 24.3775 0.95931C24.2282 0.809875 24.0305 0.718626 23.8199 0.701981C22.0698 0.587785 20.3157 0.854566 18.6787 1.48392L23.8524 6.65756C24.4816 5.02078 24.7484 3.267 24.6343 1.51714Z" fill="#EF5361"/>
<path d="M23.8531 6.6568L22.9385 5.74216C23.5544 4.13404 23.8232 2.41385 23.7273 0.694492C23.7588 0.697373 23.7901 0.700253 23.8203 0.701597C24.0307 0.718333 24.2283 0.809529 24.3776 0.95882C24.5269 1.10811 24.6181 1.30572 24.6349 1.51618C24.7481 3.26605 24.4814 5.0197 23.8531 6.6568Z" fill="#DA2A47"/>
<path d="M6.35274 13.7586C5.75438 14.5843 5.37954 15.1308 5.14738 15.4834C5.04157 15.644 4.99449 15.8362 5.01412 16.0275C5.03376 16.2188 5.11889 16.3975 5.2551 16.5332L8.80341 20.0815C8.93921 20.2177 9.11787 20.3028 9.30916 20.3224C9.50046 20.3419 9.69266 20.2949 9.85324 20.1891C10.2058 19.9569 10.7519 19.5821 11.578 18.9837L6.35274 13.7586Z" fill="#EF5361"/>
<path d="M11.5787 18.9831C10.7512 19.5821 10.2053 19.9565 9.8537 20.1879C9.69329 20.2944 9.50088 20.342 9.30931 20.3225C9.11775 20.3029 8.9389 20.2175 8.80331 20.0808L7.88867 19.1661C8.02459 19.3023 8.20337 19.3874 8.39478 19.4069C8.58618 19.4264 8.77846 19.3792 8.93907 19.2733C9.29067 19.0419 9.83661 18.6674 10.6641 18.0685L11.5787 18.9831Z" fill="#DA2A47"/>
<path d="M18.2564 10.5687C19.6186 10.004 20.2652 8.44199 19.7005 7.07977C19.1359 5.71755 17.5739 5.07098 16.2116 5.63563C14.8494 6.20027 14.2029 7.7623 14.7675 9.12452C15.3321 10.4867 16.8942 11.1333 18.2564 10.5687Z" fill="#43567C"/>
<path d="M19.118 9.99387C18.8701 10.2419 18.5758 10.4386 18.2519 10.5729C17.928 10.7071 17.5807 10.7762 17.2301 10.7762C16.8794 10.7762 16.5322 10.7071 16.2083 10.5729C15.8844 10.4386 15.59 10.2419 15.3422 9.99387C15.2425 9.89363 15.1503 9.78619 15.0664 9.67242C15.5808 10.0447 16.2109 10.2215 16.8439 10.1711C17.4768 10.1208 18.0711 9.84647 18.5201 9.3975C18.9691 8.94852 19.2434 8.35424 19.2938 7.72129C19.3441 7.08834 19.1673 6.45815 18.795 5.94379C18.9088 6.02776 19.0162 6.11992 19.1165 6.21955C19.6171 6.7199 19.8985 7.3986 19.8988 8.10639C19.8991 8.81419 19.6182 9.49312 19.118 9.99387Z" fill="#384868"/>
<path d="M6.04285 19.0008C6.04285 19.0008 7.94124 20.5195 6.77505 22.4996C5.60886 24.4796 3.98161 24.0454 3.98161 24.0454C3.98161 24.0454 4.52409 23.2679 4.44248 23.0238C4.44248 23.0238 2.45364 25.4105 0.0849609 23.6024C0.0849609 23.6024 1.07948 23.2227 1.28725 22.4001C1.49503 21.5774 1.8931 20.7999 2.39027 20.4293C2.24712 20.5658 2.06667 20.6566 1.8718 20.6904C1.67694 20.7242 1.47643 20.6993 1.2957 20.619C1.46606 20.5262 1.60464 20.3844 1.69352 20.212C1.78239 20.0395 1.81747 19.8444 1.79421 19.6518C1.71241 18.9737 4.25218 17.1746 6.04285 19.0008Z" fill="#EF5361"/>
<path d="M6.26536 19.2172C6.26536 19.2172 5.3778 18.1079 4.22083 18.7894C3.06385 19.4709 3.31829 20.4216 3.31829 20.4216C3.31829 20.4216 3.77263 20.1048 3.91531 20.1528C3.91531 20.1528 2.5206 21.3149 3.57715 22.6991C3.57715 22.6991 3.79913 22.118 4.27978 21.9964C4.76043 21.8749 5.21477 21.6425 5.43195 21.352C5.35236 21.4357 5.29933 21.541 5.27958 21.6548C5.25982 21.7686 5.27422 21.8857 5.32096 21.9913C5.37535 21.8919 5.45828 21.8111 5.55906 21.7593C5.65983 21.7075 5.77381 21.6871 5.88629 21.7007C6.2811 21.7476 7.33246 20.2632 6.26536 19.2172Z" fill="#FFC943"/>
</svg>
