<svg width="11" height="11" viewBox="0 0 11 11" fill="none" xmlns="http://www.w3.org/2000/svg">
<path d="M4.42158 9.23492C5.37281 9.23472 6.29664 8.91628 7.04595 8.3303L9.40182 10.6862L10.1596 9.92839L7.80373 7.57251C8.39002 6.82313 8.70866 5.89909 8.70889 4.94761C8.70889 2.5837 6.78549 0.660309 4.42158 0.660309C2.05767 0.660309 0.134277 2.5837 0.134277 4.94761C0.134277 7.31152 2.05767 9.23492 4.42158 9.23492ZM4.42158 1.73213C6.19492 1.73213 7.63706 3.17428 7.63706 4.94761C7.63706 6.72095 6.19492 8.16309 4.42158 8.16309C2.64825 8.16309 1.2061 6.72095 1.2061 4.94761C1.2061 3.17428 2.64825 1.73213 4.42158 1.73213Z" fill="#A19999"/>
<path d="M5.17843 4.18983C5.38154 4.39348 5.49354 4.66251 5.49354 4.94761H6.56537C6.56584 4.66595 6.51048 4.38699 6.40249 4.12685C6.2945 3.86672 6.13602 3.63057 5.93621 3.43205C5.12483 2.62175 3.71806 2.62175 2.90723 3.43205L3.66394 4.1909C4.07123 3.78468 4.77328 3.78575 5.17843 4.18983Z" fill="#A19999"/>
</svg>
