<svg width="15" height="15" viewBox="0 0 15 15" fill="none" xmlns="http://www.w3.org/2000/svg">
<path d="M13.8428 6.03491H10.0928C10.0283 6.03491 9.97559 6.08765 9.97559 6.1521V6.85522C9.97559 6.91968 10.0283 6.97241 10.0928 6.97241H13.8428C13.9072 6.97241 13.96 6.91968 13.96 6.85522V6.1521C13.96 6.08765 13.9072 6.03491 13.8428 6.03491ZM11.8799 8.0271H10.0928C10.0283 8.0271 9.97559 8.07983 9.97559 8.14429V8.84741C9.97559 8.91187 10.0283 8.9646 10.0928 8.9646H11.8799C11.9443 8.9646 11.9971 8.91187 11.9971 8.84741V8.14429C11.9971 8.07983 11.9443 8.0271 11.8799 8.0271ZM6.9917 4.72388H6.35742C6.2666 4.72388 6.19336 4.79712 6.19336 4.88794V8.52075C6.19336 8.57349 6.21826 8.62183 6.26074 8.65259L8.44189 10.2434C8.51514 10.2961 8.61768 10.2815 8.67041 10.2083L9.04688 9.69409V9.69263C9.09961 9.61939 9.0835 9.51685 9.01025 9.46411L7.1543 8.12231V4.88794C7.15576 4.79712 7.08105 4.72388 6.9917 4.72388Z" fill="#BC6C0F"/>
<path d="M11.7891 9.8713H10.9424C10.8604 9.8713 10.7827 9.91378 10.7388 9.98409C10.5527 10.2785 10.3359 10.551 10.0869 10.8C9.65773 11.2292 9.15821 11.5661 8.60304 11.8005C8.02735 12.0437 7.41651 12.1667 6.78663 12.1667C6.15528 12.1667 5.54444 12.0437 4.97023 11.8005C4.41505 11.5661 3.91554 11.2292 3.48634 10.8C3.05714 10.3708 2.72023 9.8713 2.48585 9.31612C2.24269 8.7419 2.11964 8.13106 2.11964 7.49971C2.11964 6.86837 2.24269 6.25899 2.48585 5.68331C2.72023 5.12813 3.05714 4.62862 3.48634 4.19942C3.91554 3.77022 4.41505 3.43331 4.97023 3.19893C5.54444 2.95577 6.15675 2.83272 6.78663 2.83272C7.41798 2.83272 8.02882 2.95577 8.60304 3.19893C9.15821 3.43331 9.65773 3.77022 10.0869 4.19942C10.3359 4.44845 10.5527 4.72091 10.7388 5.01534C10.7827 5.08565 10.8604 5.12813 10.9424 5.12813H11.7891C11.8901 5.12813 11.9546 5.02266 11.9092 4.93331C10.9541 3.03341 9.01759 1.79854 6.85548 1.77364C3.68995 1.73409 1.06056 4.3254 1.0547 7.488C1.04884 10.6565 3.61671 13.2273 6.78517 13.2273C8.97511 13.2273 10.9439 11.988 11.9092 10.0661C11.9546 9.97677 11.8887 9.8713 11.7891 9.8713Z" fill="#BC6C0F"/>
</svg>
