<svg width="10" height="10" viewBox="0 0 10 10" fill="none" xmlns="http://www.w3.org/2000/svg">
<path d="M5.5872 1.20594C5.49465 1.19911 5.40188 1.19569 5.30908 1.19568V0.65564C5.41522 0.655691 5.52132 0.659654 5.62717 0.667521L5.5872 1.20594ZM6.66945 1.44896C6.49634 1.38216 6.31854 1.32819 6.13751 1.28749L6.25578 0.760408C6.46261 0.806852 6.66621 0.868417 6.86387 0.945103L6.66945 1.44896ZM7.40931 1.83239C7.3321 1.7809 7.25302 1.73226 7.17223 1.68658L7.43847 1.21674C7.62312 1.32137 7.79983 1.43942 7.96717 1.56993L7.63505 1.99603C7.56183 1.93891 7.48653 1.88451 7.40931 1.83293V1.83239ZM8.39975 2.79907C8.29293 2.64731 8.17506 2.50362 8.0471 2.3692L8.43809 1.99657C8.5839 2.15048 8.71892 2.31519 8.84151 2.48801L8.39975 2.79907ZM8.80154 3.52921C8.76609 3.44359 8.72755 3.35929 8.68597 3.27647L9.16823 3.03345C9.2636 3.22305 9.34483 3.41944 9.41125 3.62102L8.89821 3.79005C8.86919 3.70195 8.83694 3.61495 8.80154 3.52921ZM9.08776 4.8831C9.0834 4.69751 9.06535 4.51249 9.03376 4.32955L9.5657 4.23775C9.60189 4.4462 9.62295 4.6579 9.62835 4.8696L9.0883 4.8831H9.08776ZM9.01702 5.71368C9.03484 5.62188 9.04942 5.53061 9.06076 5.43826L9.59702 5.50469C9.57109 5.71539 9.52957 5.92387 9.47282 6.12844L8.95221 5.98425C8.97706 5.89514 8.99866 5.80495 9.01702 5.71368ZM8.5029 6.99845C8.60227 6.84184 8.68975 6.67766 8.76536 6.50809L9.25896 6.72681C9.17255 6.92122 9.07264 7.10808 8.95923 7.28737L8.5029 6.99845ZM7.9823 7.6492C8.04818 7.58331 8.11137 7.51527 8.17131 7.44506L8.58066 7.79771C8.51134 7.87809 8.43911 7.95591 8.36411 8.03101L7.9823 7.6492Z" fill="#C53DFF"/>
<path d="M5.30934 1.19568C4.68768 1.19573 4.07563 1.34908 3.5274 1.64216C2.97917 1.93523 2.51167 2.35899 2.16632 2.87589C1.82097 3.39279 1.60842 3.98689 1.5475 4.60555C1.48658 5.22421 1.57918 5.84835 1.81708 6.42268C2.05498 6.99701 2.43085 7.50381 2.9114 7.89819C3.39194 8.29256 3.96233 8.56234 4.57204 8.68364C5.18174 8.80493 5.81195 8.77398 6.40685 8.59355C7.00174 8.41311 7.54295 8.08875 7.98255 7.6492L8.36436 8.03101C7.86198 8.53367 7.24337 8.90466 6.56334 9.11109C5.88331 9.31753 5.16286 9.35305 4.46583 9.21451C3.76879 9.07596 3.11669 8.76762 2.56729 8.31682C2.0179 7.86601 1.58819 7.28665 1.31622 6.63008C1.04426 5.9735 0.938436 5.25998 1.00814 4.55274C1.07784 3.84549 1.32091 3.16635 1.71582 2.5755C2.11072 1.98465 2.64527 1.50033 3.27209 1.16544C3.89892 0.830557 4.59867 0.655451 5.30934 0.65564V1.19568Z" fill="#C53DFF"/>
<path d="M5.03906 2.27576C5.11068 2.27576 5.17936 2.30421 5.23 2.35484C5.28064 2.40548 5.30909 2.47416 5.30909 2.54578V5.3594L7.06315 6.36172C7.12352 6.39814 7.16725 6.45673 7.185 6.52497C7.20274 6.59321 7.19309 6.66568 7.15811 6.7269C7.12313 6.78812 7.06559 6.83323 6.99779 6.85258C6.92999 6.87194 6.85731 6.864 6.79529 6.83048L4.90513 5.7504C4.86381 5.72679 4.82945 5.69268 4.80555 5.65152C4.78165 5.61036 4.76906 5.56361 4.76904 5.51602V2.54578C4.76904 2.47416 4.79749 2.40548 4.84813 2.35484C4.89877 2.30421 4.96745 2.27576 5.03906 2.27576Z" fill="#C53DFF"/>
</svg>
