<svg width="12" height="14" viewBox="0 0 12 14" fill="none" xmlns="http://www.w3.org/2000/svg">
<path d="M4.74011 3.08203C4.59899 3.06187 4.59227 3.05515 4.65947 3.04843C4.78715 3.02827 5.08283 3.05515 5.29115 3.10219C5.77498 3.21643 6.21178 3.51211 6.67546 4.02954L6.79642 4.17066L6.97114 4.14378C7.71705 4.02282 8.48313 4.1169 9.12152 4.41258C9.29624 4.49322 9.57176 4.6545 9.60536 4.69482C9.6188 4.70826 9.63896 4.79562 9.6524 4.88298C9.69944 5.19882 9.67928 5.43401 9.57848 5.61545C9.52472 5.71625 9.52472 5.74313 9.55832 5.83049C9.5852 5.89769 9.66584 5.94473 9.73976 5.94473C9.90104 5.94473 10.069 5.68937 10.1497 5.33321L10.1833 5.1921L10.2438 5.2593C10.5865 5.64233 10.8553 6.17321 10.8956 6.54953L10.909 6.65033L10.8486 6.56297C10.7478 6.40841 10.6537 6.30761 10.526 6.22025C10.2975 6.06569 10.0556 6.01865 9.4172 5.98505C8.83929 5.95145 8.51001 5.90441 8.18745 5.79689C7.63641 5.61545 7.35417 5.38025 6.70234 4.51338C6.41338 4.13034 6.23194 3.92202 6.0505 3.7473C5.65403 3.36427 5.25755 3.16267 4.74011 3.08203Z" fill="#FF007A"/>
<path d="M9.74645 3.93547C9.75989 3.68011 9.79349 3.51212 9.86741 3.35756C9.89429 3.29708 9.92117 3.24332 9.92789 3.24332C9.93461 3.24332 9.92117 3.29036 9.90101 3.34412C9.84725 3.49196 9.84053 3.70027 9.87413 3.93547C9.92117 4.23787 9.94133 4.27819 10.2639 4.60747C10.4117 4.76203 10.5864 4.95691 10.6536 5.03755L10.7679 5.18538L10.6536 5.07787C10.5125 4.94347 10.19 4.68811 10.1161 4.65451C10.069 4.62763 10.0623 4.62763 10.0287 4.66123C10.0018 4.68811 9.99509 4.72843 9.99509 4.92331C9.98837 5.2257 9.94805 5.41386 9.84725 5.60874C9.79349 5.70954 9.78677 5.68938 9.83381 5.57514C9.86741 5.48778 9.87413 5.44746 9.87413 5.1585C9.87413 4.57387 9.80693 4.43275 9.39702 4.19755C9.29622 4.13707 9.1215 4.04971 9.0207 4.00267C8.91318 3.95563 8.83254 3.91531 8.83926 3.91531C8.8527 3.90187 9.24918 4.01611 9.40373 4.08331C9.63893 4.17739 9.67925 4.18411 9.70613 4.17739C9.72629 4.15723 9.73973 4.10347 9.74645 3.93547Z" fill="#FF007A"/>
<path d="M5.01489 4.93674C4.73265 4.54698 4.55121 3.94219 4.59153 3.49195L4.60497 3.35083L4.67217 3.36427C4.79313 3.38443 5.00145 3.46507 5.10225 3.52555C5.37105 3.68683 5.492 3.90859 5.60624 4.45962C5.63984 4.6209 5.68688 4.80906 5.70704 4.86954C5.74064 4.97034 5.86832 5.20554 5.97584 5.35338C6.04976 5.4609 6.00272 5.51466 5.83472 5.50122C5.57936 5.47434 5.23665 5.23914 5.01489 4.93674Z" fill="#FF007A"/>
<path d="M9.40349 7.85993C8.07294 7.32234 7.60254 6.85866 7.60254 6.07242C7.60254 5.95818 7.60926 5.86411 7.60926 5.86411C7.61598 5.86411 7.66302 5.90443 7.7235 5.95146C7.9923 6.1665 8.29469 6.26058 9.13469 6.38154C9.62525 6.45546 9.90748 6.50922 10.1628 6.59658C10.976 6.86538 11.48 7.41642 11.6009 8.16233C11.6345 8.37737 11.6144 8.78729 11.5606 9.00233C11.5136 9.17032 11.3792 9.47944 11.3456 9.48616C11.3388 9.48616 11.3254 9.45256 11.3254 9.3988C11.312 9.11657 11.1708 8.84777 10.9356 8.63945C10.6534 8.39753 10.2905 8.21609 9.40349 7.85993Z" fill="#FF007A"/>
<path d="M8.46305 8.08168C8.44961 7.98088 8.41601 7.8532 8.39585 7.79944L8.36225 7.69864L8.42273 7.77256C8.51009 7.87336 8.57729 7.99432 8.63776 8.16232C8.6848 8.28999 8.6848 8.33031 8.6848 8.53863C8.6848 8.74023 8.67808 8.78727 8.63776 8.90151C8.57057 9.08295 8.48993 9.21063 8.35553 9.35175C8.11361 9.60039 7.79777 9.73479 7.34753 9.79527C7.26689 9.80199 7.03841 9.82215 6.83682 9.83559C6.33282 9.86247 5.99682 9.91622 5.69442 10.0237C5.6541 10.0372 5.61378 10.0506 5.60706 10.0439C5.59362 10.0305 5.80194 9.9095 5.96994 9.82887C6.20514 9.71463 6.44706 9.65415 6.97794 9.56007C7.24001 9.51975 7.50881 9.46599 7.57601 9.43911C8.24129 9.23079 8.57057 8.71335 8.46305 8.08168Z" fill="#FF007A"/>
<path d="M9.07465 9.1636C8.89993 8.78056 8.85961 8.41768 8.95369 8.07497C8.96713 8.04137 8.98057 8.00777 8.99401 8.00777C9.00745 8.00777 9.04777 8.02793 9.08809 8.05481C9.16873 8.10857 9.33673 8.20265 9.7668 8.43784C10.3111 8.73352 10.6202 8.962 10.8353 9.22408C11.0234 9.45256 11.1377 9.71464 11.1914 10.0372C11.225 10.2186 11.2049 10.6554 11.1578 10.8369C11.01 11.4081 10.674 11.865 10.1834 12.1271C10.1095 12.1674 10.049 12.1943 10.0423 12.1943C10.0356 12.1943 10.0625 12.1271 10.1028 12.0465C10.2641 11.7037 10.2842 11.3745 10.1633 11.0049C10.0894 10.7764 9.9348 10.5009 9.62568 10.0372C9.25609 9.4996 9.16873 9.35848 9.07465 9.1636Z" fill="#FF007A"/>
<path d="M4.06885 11.2199C4.56613 10.8033 5.17765 10.5076 5.74212 10.4135C5.98404 10.3732 6.38724 10.3866 6.609 10.4471C6.96516 10.5412 7.28771 10.7428 7.45571 10.9914C7.61699 11.2333 7.69091 11.4417 7.76483 11.9053C7.79171 12.0868 7.82531 12.2749 7.83203 12.3153C7.88579 12.5572 7.99331 12.7453 8.12771 12.8461C8.33603 13.0007 8.6989 13.0074 9.05506 12.873C9.11554 12.8528 9.1693 12.8327 9.1693 12.8394C9.18274 12.8528 9.0013 12.9738 8.88034 13.0343C8.71234 13.1216 8.57795 13.1485 8.39651 13.1485C8.07395 13.1485 7.79843 12.9805 7.57667 12.6445C7.52963 12.5773 7.43555 12.3825 7.35491 12.201C7.11971 11.6567 6.99876 11.4954 6.72324 11.314C6.48132 11.1594 6.1722 11.1258 5.937 11.2401C5.62788 11.3879 5.54724 11.7844 5.76228 12.0263C5.84964 12.1271 6.01092 12.2077 6.14532 12.2279C6.39396 12.2615 6.609 12.0666 6.609 11.818C6.609 11.6567 6.54852 11.5626 6.38724 11.4887C6.1722 11.3946 5.937 11.5021 5.94372 11.7105C5.94372 11.7978 5.98404 11.8516 6.0714 11.8919C6.12516 11.9188 6.12516 11.9188 6.08484 11.9121C5.88996 11.8717 5.84292 11.6298 5.99748 11.4753C6.18564 11.2871 6.58212 11.3677 6.71652 11.6298C6.77028 11.7373 6.777 11.9524 6.72996 12.0868C6.61572 12.3825 6.29316 12.537 5.96388 12.4497C5.74212 12.3892 5.64804 12.3287 5.37925 12.0532C4.90885 11.5693 4.72741 11.4753 4.05541 11.3745L3.92773 11.3543L4.06885 11.2199Z" fill="#FF007A"/>
<path fill-rule="evenodd" clip-rule="evenodd" d="M0.533465 0.407489C2.09922 2.30924 4.51168 5.26602 4.63264 5.4273C4.73344 5.5617 4.69312 5.68938 4.52512 5.78346C4.43104 5.83722 4.23616 5.89097 4.14208 5.89097C4.03456 5.89097 3.90688 5.83722 3.81952 5.74986C3.75905 5.68938 3.49697 5.30634 2.90561 4.3857C2.45537 3.68011 2.07234 3.09547 2.06562 3.08875C2.03874 3.07531 2.03874 3.07531 2.85857 4.54026C3.37601 5.4609 3.54401 5.79018 3.54401 5.8305C3.54401 5.91785 3.51713 5.96489 3.40961 6.08585C3.22817 6.28745 3.14753 6.51593 3.08705 6.99305C3.01985 7.52392 2.83841 7.90024 2.32097 8.53864C2.01858 8.91496 1.97154 8.98216 1.89762 9.13671C1.80354 9.32487 1.77666 9.43239 1.76322 9.67431C1.74978 9.92967 1.77666 10.0909 1.85058 10.3329C1.91778 10.5479 1.9917 10.689 2.17313 10.9645C2.32769 11.2065 2.42177 11.3879 2.42177 11.4551C2.42177 11.5089 2.43521 11.5089 2.67713 11.4551C3.25505 11.3207 3.73217 11.0922 3.99424 10.81C4.15552 10.6353 4.19584 10.5412 4.19584 10.2993C4.19584 10.1447 4.18912 10.1111 4.1488 10.017C4.0816 9.86919 3.95392 9.74823 3.67841 9.56007C3.31553 9.31143 3.16097 9.10984 3.12065 8.84104C3.08705 8.61256 3.12737 8.458 3.32897 8.03464C3.53729 7.59784 3.59105 7.41641 3.62465 6.97289C3.64481 6.69065 3.67841 6.57641 3.75905 6.48905C3.8464 6.39497 3.92032 6.36137 4.12864 6.33449C4.47136 6.28745 4.69312 6.20009 4.86784 6.03209C5.0224 5.89097 5.0896 5.74986 5.09632 5.54154L5.10304 5.38698L5.01568 5.2929C4.69984 4.93002 0.325146 0.11853 0.304986 0.11853C0.298266 0.11853 0.405786 0.24621 0.533465 0.407489ZM2.59649 9.96327C2.67041 9.83559 2.63009 9.67431 2.50913 9.59367C2.39489 9.51975 2.22017 9.55335 2.22017 9.65415C2.22017 9.68103 2.23361 9.70791 2.27393 9.72135C2.33441 9.75495 2.34113 9.78855 2.29409 9.86247C2.24705 9.93639 2.24705 10.0036 2.30753 10.0506C2.40161 10.1245 2.52929 10.0842 2.59649 9.96327Z" fill="#FF007A"/>
<path fill-rule="evenodd" clip-rule="evenodd" d="M5.31798 6.42857C5.1567 6.47561 5.00215 6.65033 4.95511 6.82504C4.92823 6.93256 4.94167 7.12744 4.98871 7.18792C5.06263 7.282 5.12983 7.30888 5.31798 7.30888C5.68758 7.30888 6.00342 7.1476 6.03702 6.95272C6.07062 6.79144 5.9295 6.56969 5.73462 6.46889C5.63382 6.41513 5.4255 6.39497 5.31798 6.42857ZM5.74806 6.76456C5.80182 6.68392 5.78166 6.59657 5.68086 6.53609C5.49942 6.42185 5.2239 6.51593 5.2239 6.69065C5.2239 6.778 5.36502 6.87208 5.49942 6.87208C5.58678 6.87208 5.70774 6.81832 5.74806 6.76456Z" fill="#FF007A"/>
</svg>
