<svg width="11" height="11" viewBox="0 0 11 11" fill="none" xmlns="http://www.w3.org/2000/svg">
<path d="M9.40005 2.89999H1.27505V2.57499L8.42505 2.00299V2.57499H9.40005V1.59999C9.40005 0.884991 8.8209 0.383191 8.1137 0.483941L1.58705 1.41604C0.879199 1.51744 0.300049 2.18499 0.300049 2.89999V9.39999C0.300049 9.74477 0.437013 10.0754 0.68081 10.3192C0.924607 10.563 1.25527 10.7 1.60005 10.7H9.40005C9.74483 10.7 10.0755 10.563 10.3193 10.3192C10.5631 10.0754 10.7 9.74477 10.7 9.39999V4.19999C10.7 3.85521 10.5631 3.52455 10.3193 3.28075C10.0755 3.03695 9.74483 2.89999 9.40005 2.89999V2.89999ZM8.42505 7.45389C8.29697 7.45385 8.17015 7.42858 8.05183 7.37952C7.93352 7.33047 7.82602 7.25859 7.73548 7.168C7.64495 7.0774 7.57314 6.96985 7.52417 6.85151C7.47519 6.73316 7.45001 6.60632 7.45005 6.47824C7.45009 6.35016 7.47536 6.22334 7.52442 6.10503C7.57347 5.98671 7.64535 5.87921 7.73594 5.78868C7.82654 5.69814 7.93408 5.62633 8.05243 5.57736C8.17078 5.52838 8.29762 5.5032 8.4257 5.50324C8.68437 5.50333 8.93241 5.60617 9.11526 5.78914C9.29811 5.97211 9.40078 6.22022 9.4007 6.47889C9.40061 6.73756 9.29777 6.98561 9.1148 7.16845C8.93183 7.3513 8.68372 7.45398 8.42505 7.45389Z" fill="white"/>
</svg>
