<svg width="12" height="12" viewBox="0 0 12 12" fill="none" xmlns="http://www.w3.org/2000/svg">
<path d="M6.31053 0.471008C3.18856 0.471008 0.651367 3.0082 0.651367 6.13017C0.651367 9.25214 3.18856 11.7893 6.31053 11.7893C6.66422 11.7893 7.00849 11.7563 7.34804 11.695L6.96133 10.5349C6.90474 10.5915 6.84343 10.6386 6.78212 10.6811V9.99255L5.90495 7.36575C5.85779 7.22899 5.83893 7.08751 5.83893 6.95075V7.90809C5.39091 7.92695 4.95233 7.96468 4.53732 8.03542C4.45244 7.59212 4.39584 7.11109 4.37226 6.59233H5.83893V6.95075C5.83893 6.61591 5.97098 6.29051 6.22092 6.04057C6.46144 5.79533 6.78684 5.65857 7.13582 5.65857C7.2773 5.65857 7.41406 5.68215 7.55083 5.7246L10.1493 6.59233H11.0029C10.9935 6.68665 10.984 6.77626 10.9652 6.86586L11.8754 7.16768C11.9367 6.82813 11.9697 6.48387 11.9697 6.13017C11.9697 3.0082 9.4325 0.471008 6.31053 0.471008V0.471008ZM5.83893 8.85128V10.6811C5.43336 10.4075 5.04665 9.80391 4.77312 8.95032C5.11739 8.89844 5.47109 8.86543 5.83893 8.85128ZM2.34912 3.57883C2.72639 3.75804 3.15083 3.90895 3.61299 4.03156C3.51396 4.53617 3.45265 5.07851 3.42907 5.64914H1.61814C1.6936 4.89458 1.95769 4.19191 2.34912 3.57883ZM1.61814 6.59233H3.42907C3.45265 7.1724 3.51396 7.71945 3.61299 8.22877C3.15083 8.35139 2.72639 8.5023 2.34912 8.68151C1.95297 8.06843 1.6936 7.35632 1.61814 6.59233ZM4.39584 10.4358C3.85351 10.1953 3.36776 9.85578 2.95747 9.44078C3.22628 9.32288 3.52339 9.22384 3.83936 9.14367C3.99027 9.62942 4.17891 10.068 4.39584 10.4358ZM3.83936 3.11667C3.52339 3.03649 3.22628 2.93746 2.95747 2.81956C3.36776 2.40455 3.85351 2.065 4.39584 1.82449C4.17891 2.19234 3.99027 2.63092 3.83936 3.11667ZM5.83893 5.64914H4.37226C4.39584 5.13981 4.45244 4.6635 4.53732 4.22492C4.95233 4.29566 5.39091 4.33338 5.83893 4.35225V5.64914ZM5.83893 3.40906C5.47109 3.39491 5.11739 3.3619 4.77312 3.31002C5.04665 2.45643 5.43336 1.85279 5.83893 1.57926V3.40906ZM6.78212 1.57926C7.1877 1.85279 7.57441 2.45643 7.84793 3.31002C7.50367 3.3619 7.14997 3.39491 6.78212 3.40906V1.57926ZM6.78212 5.64914V4.35225C7.23014 4.33338 7.66873 4.29566 8.08373 4.22492C8.16862 4.6635 8.22521 5.13981 8.24879 5.64914H6.78212ZM8.22521 1.82449C8.76755 2.065 9.25329 2.40455 9.66358 2.81956C9.39477 2.93746 9.09766 3.03649 8.78169 3.11667C8.63078 2.63092 8.44214 2.19234 8.22521 1.82449ZM9.19198 5.64914C9.1684 5.07851 9.10709 4.53617 9.00806 4.03156C9.47022 3.90895 9.89466 3.75804 10.2719 3.57883C10.6634 4.19191 10.9275 4.89458 11.0029 5.64914H9.19198Z" fill="#63128B"/>
<path d="M8.6293 11.7893C8.62694 11.7893 8.62411 11.7893 8.62128 11.7893C8.47226 11.786 8.34116 11.6894 8.294 11.5474L6.80045 7.06724C6.75801 6.93991 6.79102 6.79984 6.88581 6.70505C6.9806 6.60979 7.12066 6.57678 7.24799 6.61969L11.7282 8.11324C11.8696 8.1604 11.9663 8.2915 11.9701 8.44053C11.9734 8.58955 11.8828 8.72537 11.7433 8.77866L9.73284 9.55208L8.95942 11.5625C8.9066 11.6997 8.77502 11.7893 8.6293 11.7893Z" fill="#63128B"/>
</svg>
