<svg width="13" height="11" viewBox="0 0 13 11" fill="none" xmlns="http://www.w3.org/2000/svg">
<path d="M11.9167 0.083374H1.08341C0.939756 0.083374 0.801981 0.140442 0.700399 0.242024C0.598816 0.343607 0.541748 0.481382 0.541748 0.625041V4.95837C0.541748 5.10203 0.598816 5.23981 0.700399 5.34139C0.801981 5.44297 0.939756 5.50004 1.08341 5.50004H2.70841V10.375C2.70841 10.5187 2.76548 10.6565 2.86707 10.7581C2.96865 10.8596 3.10642 10.9167 3.25008 10.9167H9.75008C9.89374 10.9167 10.0315 10.8596 10.1331 10.7581C10.2347 10.6565 10.2917 10.5187 10.2917 10.375V5.50004H11.9167C12.0604 5.50004 12.1982 5.44297 12.2998 5.34139C12.4013 5.23981 12.4584 5.10203 12.4584 4.95837V0.625041C12.4584 0.481382 12.4013 0.343607 12.2998 0.242024C12.1982 0.140442 12.0604 0.083374 11.9167 0.083374ZM3.79175 9.83337V8.75004C4.07907 8.75004 4.35462 8.86418 4.55778 9.06734C4.76094 9.27051 4.87508 9.54606 4.87508 9.83337H3.79175ZM9.20841 9.83337H8.12508C8.12508 9.54606 8.23922 9.27051 8.44238 9.06734C8.64555 8.86418 8.9211 8.75004 9.20841 8.75004V9.83337ZM9.20841 7.66671C8.63378 7.66671 8.08268 7.89498 7.67635 8.30131C7.27002 8.70764 7.04175 9.25874 7.04175 9.83337H5.95841C5.95841 9.25874 5.73014 8.70764 5.32381 8.30131C4.91748 7.89498 4.36638 7.66671 3.79175 7.66671V3.33337H9.20841V7.66671ZM11.3751 4.41671H10.2917V2.79171C10.2917 2.64805 10.2347 2.51027 10.1331 2.40869C10.0315 2.30711 9.89374 2.25004 9.75008 2.25004H3.25008C3.10642 2.25004 2.96865 2.30711 2.86707 2.40869C2.76548 2.51027 2.70841 2.64805 2.70841 2.79171V4.41671H1.62508V1.16671H11.3751V4.41671ZM6.50008 7.12504C6.82148 7.12504 7.13565 7.02974 7.40288 6.85118C7.67011 6.67262 7.87839 6.41883 8.00139 6.1219C8.12438 5.82497 8.15656 5.49824 8.09386 5.18302C8.03116 4.8678 7.87639 4.57825 7.64913 4.35099C7.42187 4.12373 7.13232 3.96897 6.8171 3.90626C6.50188 3.84356 6.17515 3.87574 5.87822 3.99874C5.58129 4.12173 5.3275 4.33001 5.14894 4.59724C4.97039 4.86447 4.87508 5.17865 4.87508 5.50004C4.87508 5.93102 5.04629 6.34434 5.35103 6.64909C5.65578 6.95384 6.0691 7.12504 6.50008 7.12504ZM6.50008 4.95837C6.60721 4.95837 6.71194 4.99014 6.80101 5.04966C6.89009 5.10918 6.95952 5.19378 7.00052 5.29275C7.04151 5.39173 7.05224 5.50064 7.03134 5.60571C7.01044 5.71079 6.95885 5.8073 6.8831 5.88306C6.80734 5.95881 6.71083 6.0104 6.60575 6.0313C6.50068 6.0522 6.39177 6.04147 6.29279 6.00047C6.19382 5.95948 6.10922 5.89005 6.0497 5.80097C5.99018 5.7119 5.95841 5.60717 5.95841 5.50004C5.95841 5.35638 6.01548 5.21861 6.11706 5.11702C6.21865 5.01544 6.35642 4.95837 6.50008 4.95837Z" fill="#CCE3FA"/>
</svg>
